<svg width="16" height="16" xmlns="http://www.w3.org/2000/svg"><g id="Icons-/-16-/-Menu-/-ABM-/-Inactive" stroke="none" stroke-width="1" fill="none" fill-rule="evenodd"><path d="M6.438 15a.543.543 0 00.398-.164.542.542 0 00.164-.399.542.542 0 00-.164-.398.542.542 0 00-.399-.164H2.125V2.125h11.75v5.313c0 .156.057.289.172.398A.56.56 0 0015 7.437V2.125c0-.313-.11-.578-.328-.797A1.085 1.085 0 0013.875 1H2.125c-.313 0-.578.11-.797.328A1.085 1.085 0 001 2.125v11.75c0 .313.11.578.328.797.219.219.484.328.797.328h4.313zm2-9.875a.543.543 0 00.398-.164A.542.542 0 009 4.562a.542.542 0 00-.164-.398A.542.542 0 008.437 4H3.564a.55.55 0 00-.391.164.53.53 0 00-.172.399c0 .156.057.289.172.398a.55.55 0 00.39.164h4.876zm-2 3a.543.543 0 00.398-.164A.542.542 0 007 7.562a.542.542 0 00-.164-.398A.542.542 0 006.437 7H3.563a.55.55 0 00-.39.164.53.53 0 00-.172.399c0 .156.057.289.172.398a.55.55 0 00.39.164h2.876zM14.421 15a.346.346 0 00.11-.016.56.56 0 00.366-.242.517.517 0 00.086-.414 3.062 3.062 0 00-.648-1.375 2.94 2.94 0 00-1.211-.875c.292-.187.518-.432.68-.734a2.06 2.06 0 00.242-.985c0-.573-.2-1.06-.602-1.46a1.98 1.98 0 00-1.453-.602 2 2 0 00-1.46.601c-.407.401-.61.888-.61 1.461 0 .344.083.67.25.977.167.307.396.555.687.742a2.94 2.94 0 00-1.21.875A3.058 3.058 0 009 14.328a.517.517 0 00.086.414c.088.13.21.211.367.242a.523.523 0 00.422-.086.57.57 0 00.234-.367 1.83 1.83 0 01.657-1.11 1.873 1.873 0 011.226-.437c.464 0 .873.146 1.227.438.354.292.573.661.656 1.11a.61.61 0 00.203.335.519.519 0 00.344.133zm-2.43-3.703a.895.895 0 01-.656-.274.904.904 0 01-.274-.664c0-.26.089-.479.266-.656a.908.908 0 01.664-.281c.255 0 .477.091.664.273a.892.892 0 01.281.664c0 .26-.093.482-.28.664a.921.921 0 01-.665.274zm-5.555-.172c.157 0 .29-.055.399-.164A.542.542 0 007 10.562a.542.542 0 00-.164-.398.542.542 0 00-.399-.164H3.563a.55.55 0 00-.39.164.53.53 0 00-.172.399c0 .156.057.289.172.398a.55.55 0 00.39.164h2.876z" id="" fill="#222" fill-rule="nonzero"/></g></svg>