<svg width="16" height="16" xmlns="http://www.w3.org/2000/svg"><g id="Icons-/-16-/-Menu-/-Afiliado-/-Inactive" stroke="none" stroke-width="1" fill="none" fill-rule="evenodd"><path d="M12.656 14.984c.156 0 .29-.054.399-.164a.542.542 0 00.164-.398 5.41 5.41 0 00-.422-2.031 5.088 5.088 0 00-1.11-1.657 5.088 5.088 0 00-1.656-1.109 4.449 4.449 0 00-.656-.234 4.174 4.174 0 001.672-1.032c.844-.843 1.265-1.859 1.265-3.046 0-1.188-.421-2.201-1.265-3.04-.844-.838-1.86-1.257-3.047-1.257-1.188 0-2.2.419-3.04 1.257-.838.839-1.257 1.852-1.257 3.04 0 1.187.417 2.203 1.25 3.046.48.48 1.037.823 1.672 1.032a3.73 3.73 0 00-.656.234c-.625.26-1.177.63-1.657 1.11a5.088 5.088 0 00-1.109 1.656 5.2 5.2 0 00-.406 2.03c0 .157.055.29.164.4.11.109.242.163.398.163a.54.54 0 00.399-.164.542.542 0 00.164-.398c0-1.125.398-2.089 1.195-2.89.797-.803 1.76-1.204 2.89-1.204 1.131 0 2.095.399 2.891 1.195.797.797 1.196 1.763 1.196 2.899 0 .156.054.289.164.398a.54.54 0 00.398.164zM8 8.5a3.069 3.069 0 01-2.25-.938 3.095 3.095 0 01-.922-2.25c0-.875.31-1.622.93-2.242.62-.62 1.367-.93 2.242-.93s1.622.31 2.242.93c.62.62.93 1.368.93 2.243 0 .875-.31 1.625-.93 2.25A3.043 3.043 0 018 8.5z" id="" fill="#222" fill-rule="nonzero"/></g></svg>