<svg width="20" height="20" xmlns="http://www.w3.org/2000/svg"><g id="Filtro-/-sm-/-Aplicado" stroke="none" stroke-width="1" fill="none" fill-rule="evenodd"><rect id="Rectangle" stroke="#979797" fill="#D8D8D8" x=".5" y=".5" width="19" height="19" rx="9.5"/><g id="Group" transform="translate(3 3)" fill="#474747" fill-rule="nonzero"><path d="M10.862 11.193c.15 0 .278-.052.383-.157a.521.521 0 00.157-.383.489.489 0 00-.164-.376L7.766 6.791l3.472-3.486c.11-.1.164-.226.164-.376a.521.521 0 00-.157-.383.521.521 0 00-.383-.157.489.489 0 00-.376.164L7 6.025 3.514 2.553a.489.489 0 00-.376-.164.521.521 0 00-.383.157.521.521 0 00-.157.383c0 .15.054.275.164.376L6.234 6.79l-3.472 3.486a.489.489 0 00-.164.376c0 .15.052.278.157.383a.521.521 0 00.383.157c.15 0 .275-.054.376-.164L7 7.543l3.486 3.486c.1.11.226.164.376.164z" id=""/></g></g></svg>