<svg version="1.1" id="Capa_1" xmlns="http://www.w3.org/2000/svg" x="0" y="0" viewBox="0 0 30 30" xml:space="preserve"><style>.st0{fill:#444}</style><path class="st0" d="M3.5 30h23c1.9 0 3.5-1.6 3.5-3.5v-23C30 1.6 28.4 0 26.5 0h-23C1.6 0 0 1.6 0 3.5v23C0 28.4 1.6 30 3.5 30zM1 3.5C1 2.1 2.1 1 3.5 1h23C27.9 1 29 2.1 29 3.5v23c0 1.4-1.1 2.5-2.5 2.5h-23C2.1 29 1 27.9 1 26.5v-23z"/><path class="st0" d="M19.8 14.4s0-.1-.1-.1l-6-6c-.1 0-.1-.1-.2-.1-.1-.1-.2-.2-.3-.2h-.3c-.1 0-.2.1-.3.1-.4.2-.6.5-.6.9v.3c0 .1.1.2.1.3 0 .1 0 .1.1.1l5.3 5.3-5.3 5.3-.1.1c-.1.1-.1.2-.2.3 0 .1-.1.3 0 .4 0 .3.3.7.6.8.1 0 .2.1.3.1h.3c.2 0 .3-.1.4-.2 0 0 .1 0 .1-.1l6-6 .1-.1c0-.1.1-.1.1-.2.1-.3.1-.6 0-.9.1 0 0-.1 0-.1z"/></svg>