<svg version="1.1" id="Capa_1" xmlns="http://www.w3.org/2000/svg" x="0" y="0" viewBox="0 0 30 30" xml:space="preserve"><style>.st0{fill:#444}</style><path class="st0" d="M26.5 0h-23C1.6 0 0 1.6 0 3.5v23C0 28.4 1.6 30 3.5 30h23c1.9 0 3.5-1.6 3.5-3.5v-23C30 1.6 28.4 0 26.5 0zM29 26.5c0 1.4-1.1 2.5-2.5 2.5h-23C2.1 29 1 27.9 1 26.5v-23C1 2.1 2.1 1 3.5 1h23C27.9 1 29 2.1 29 3.5v23z"/><path class="st0" d="M10.2 15.6s0 .1.1.1l6 6c.1 0 .1.1.2.1.1.1.2.1.4.1h.2c.1 0 .2-.1.3-.1.3-.2.5-.5.5-.8v-.3c0-.1-.1-.2-.1-.3 0-.1 0-.1-.1-.1L12.4 15l5.3-5.3.1-.1c.1-.1.1-.2.2-.3v-.4c0-.3-.3-.7-.6-.8-.1 0-.2-.1-.3-.1h-.3c-.2 0-.3.1-.4.2 0 0-.1 0-.1.1l-6 6-.1.1c0 .1-.1.1-.1.2-.1.3-.1.6 0 .9l.1.1z"/></svg>