<svg xmlns="http://www.w3.org/2000/svg" width="20" height="20"><path d="M9.694 13.407c.572 0 1.048.477 1.048 1.048 0 .559-.463 1.049-1.048 1.049-.586 0-1.035-.49-1.035-1.049 0-.571.463-1.048 1.035-1.048zm.177-7.938c1.743 0 2.9.967 2.9 2.247 0 1.28-1.157 2.205-1.525 2.491-.749.586-.763.994-.763 1.702 0 .259-.136.559-.803.559-.558 0-.749-.205-.749-.913 0-1.17.518-1.729.912-2.07.45-.38 1.212-.803 1.212-1.538 0-.626-.544-.926-1.225-.926-1.389 0-1.09 1.048-1.825 1.048-.367 0-.817-.245-.817-.776 0-.735.845-1.824 2.683-1.824zM10 0C4.473 0 0 4.473 0 10v9.219c0 .431.35.781.781.781H10c5.527 0 10-4.473 10-10S15.527 0 10 0zm0 18.438H1.562V10A8.434 8.434 0 0110 1.562 8.434 8.434 0 0118.438 10 8.434 8.434 0 0110 18.438z" fill="#222"/></svg>