<svg xmlns="http://www.w3.org/2000/svg" width="20" height="20"><path fill="#474747" d="M10 19.375c.371 0 .687-.13.946-.39.26-.26.39-.575.39-.946v-.89h5.121a.647.647 0 00.473-.195.645.645 0 00.195-.474.645.645 0 00-.195-.473.643.643 0 00-.473-.195h-.52V7.5c0-1.521-.507-2.845-1.521-3.97-1.014-1.126-2.264-1.77-3.748-1.93v-.557a.643.643 0 00-.195-.473c-.13-.13-.287-.195-.473-.195S9.657.44 9.527.57a.643.643 0 00-.195.473V1.6c-1.484.16-2.734.804-3.748 1.93C4.57 4.654 4.063 5.978 4.063 7.5v8.313h-.52a.642.642 0 00-.473.194.645.645 0 00-.195.473c0 .186.065.344.195.474s.287.194.473.194h5.121v.891c0 .371.13.687.39.946.26.26.575.39.946.39zm4.602-3.563H5.398V7.5c0-1.274.449-2.36 1.346-3.256C7.64 3.347 8.726 2.898 10 2.898c1.274 0 2.36.449 3.256 1.346.897.896 1.346 1.982 1.346 3.256v8.313z"/></svg>