<svg version="1.1" id="Capa_1" xmlns="http://www.w3.org/2000/svg" x="0" y="0" viewBox="0 0 30 30" xml:space="preserve"><path d="M27 27H3V3h24v24z" fill="none"/><path d="M13.2 8c.1 0 .3.1.4.1.1 0 .1.1.2.1l6 6 .1.1c0 .1.1.1.1.2.1.3.1.6 0 .9 0 .1-.1.1-.1.2 0 0 0 .1-.1.1l-6 6-.1.1c-.1.1-.3.2-.4.2H13c-.1 0-.2 0-.3-.1-.3-.1-.5-.5-.6-.8v-.4c0-.1.1-.2.2-.3 0 0 0-.1.1-.1l5.3-5.3-5.3-5.3-.1-.1c-.1-.1-.1-.2-.1-.3V9c0-.3.2-.7.5-.8-.1-.1 0-.2.1-.2h.4z" opacity=".5" fill-rule="evenodd" clip-rule="evenodd" fill="#474747"/></svg>