<svg xmlns="http://www.w3.org/2000/svg" width="30" height="30"><g fill="none" fill-rule="evenodd"><path d="M3 3h24v24H3z"/><path fill="#474747" d="M16.83 21.986a.982.982 0 01-.538-.278l-6-6c-.041-.045-.053-.055-.09-.103a1.011 1.011 0 010-1.209c.037-.048.049-.059.09-.103l6-6c.045-.041.055-.053.103-.09a1.004 1.004 0 011.034-.106 1.007 1.007 0 01.524 1.206c-.035.108-.088.21-.157.301-.036.049-.048.059-.09.103L12.415 15l5.293 5.293.046.05c.039.047.05.058.083.11a.998.998 0 01-.667 1.533c-.06.01-.075.01-.135.014h-.069c-.06-.004-.076-.004-.135-.014z" opacity=".5"/></g></svg>