<svg width="24" height="24" xmlns="http://www.w3.org/2000/svg"><g id="Icons-/-24-/-close-/-Hover" stroke="none" stroke-width="1" fill="none" fill-rule="evenodd"><path d="M18.621 19.617a.89.89 0 00.656-.27.89.89 0 00.27-.656.838.838 0 00-.281-.644l-5.953-5.977 5.953-5.976a.838.838 0 00.28-.645.893.893 0 00-.269-.656.893.893 0 00-.656-.27.838.838 0 00-.644.282L12 10.758 6.023 4.805a.838.838 0 00-.644-.282.893.893 0 00-.656.27.893.893 0 00-.27.656.84.84 0 00.281.645l5.954 5.976-5.954 5.977a.838.838 0 00-.28.644c0 .258.089.477.269.657.18.18.398.27.656.27a.838.838 0 00.644-.282L12 13.359l5.977 5.977a.838.838 0 00.644.281z" id="" fill="#474747" fill-rule="nonzero"/></g></svg>