<svg width="16" height="16" xmlns="http://www.w3.org/2000/svg"><g id="Icons-/-16-/-Menu-/-MiWeb-/-Inactive" stroke="none" stroke-width="1" fill="none" fill-rule="evenodd"><path d="M8 15.125a7.37 7.37 0 001.125-.094l.375-.062.39-1.14c.303-.105.6-.23.891-.376L11.86 14l.313-.234c.333-.24.62-.485.86-.735.25-.24.494-.526.734-.86l.218-.312-.53-1.078a6.91 6.91 0 00.374-.906l1.14-.375.063-.375c.063-.406.094-.781.094-1.125s-.031-.719-.094-1.125L14.97 6.5l-1.14-.39a6.91 6.91 0 00-.376-.907l.531-1.078-.218-.297a7.082 7.082 0 00-1.594-1.61L11.859 2l-1.078.547a6.91 6.91 0 00-.906-.375L9.5 1.032 9.125.968A7.436 7.436 0 008 .875a7.37 7.37 0 00-1.125.094L6.5 1.03l-.39 1.14a6.17 6.17 0 00-.891.376L4.14 2l-.313.234a7.229 7.229 0 00-1.594 1.594l-.218.313.53 1.078c-.145.291-.27.588-.374.89l-1.14.391-.063.375A7.436 7.436 0 00.875 8c0 .344.031.719.094 1.125l.062.375 1.14.39c.105.313.23.61.376.891l-.531 1.078.218.313c.23.312.474.599.735.86.24.239.526.484.86.734l.312.218 1.078-.53c.291.145.588.27.89.374l.391 1.14.375.063A7.37 7.37 0 008 15.125zM8 14c-.198 0-.417-.016-.656-.047l-.172-.547L7 12.922l-.484-.156a5.32 5.32 0 01-.829-.344l-.453-.235-.468.235-.516.25a3.907 3.907 0 01-.484-.438 3.907 3.907 0 01-.438-.484l.485-.969-.235-.453a4.994 4.994 0 01-.344-.828L3.078 9l-1.031-.344a4.635 4.635 0 010-1.312L3.078 7l.156-.484c.084-.282.198-.558.344-.829l.235-.468-.235-.453-.25-.516c.271-.344.578-.651.922-.922l.969.485.468-.235c.26-.146.537-.26.829-.344L7 3.078l.156-.484.188-.563a7.193 7.193 0 011.312 0L9 3.078l.484.14c.292.095.573.21.844.345l.453.25.969-.5c.344.28.656.593.938.937l-.5.969.234.453c.146.27.265.547.36.828l.14.5.484.156.563.188c.031.229.041.442.031.64V8c0 .198-.01.417-.031.656l-.563.172-.484.172-.156.5a4.573 4.573 0 01-.329.813l-.25.453.5.984a6.779 6.779 0 01-.437.484v.016a4.099 4.099 0 01-.5.422l-.969-.485-.453.235c-.27.135-.552.25-.844.344L9 12.922l-.156.484-.188.547A4.635 4.635 0 018 14zm0-3.281c.75 0 1.39-.266 1.922-.797A2.62 2.62 0 0010.719 8c0-.75-.266-1.39-.797-1.922A2.62 2.62 0 008 5.281c-.75 0-1.39.266-1.922.797A2.62 2.62 0 005.281 8c0 .75.266 1.39.797 1.922A2.62 2.62 0 008 10.719zm0-1.125c-.438 0-.813-.156-1.125-.469A1.534 1.534 0 016.406 8c0-.438.157-.813.469-1.125.313-.313.69-.469 1.133-.469.443 0 .818.157 1.125.469.307.313.46.688.46 1.125 0 .438-.155.813-.468 1.125A1.534 1.534 0 018 9.594z" id="" fill="#222" fill-rule="nonzero"/></g></svg>