<svg width="16" height="16" xmlns="http://www.w3.org/2000/svg"><g id="Icons-/-16-/-Header-/-Conexión-/-Hover" stroke="none" stroke-width="1" fill="none" fill-rule="evenodd"><path d="M10.86 9.36a.584.584 0 00.406-.157l2.796-2.797a3.095 3.095 0 00.922-2.25c0-.875-.31-1.622-.93-2.242a3.056 3.056 0 00-2.242-.93c-.874 0-1.624.313-2.25.938L6.767 4.719a.53.53 0 00-.157.39c0 .157.055.29.164.399.11.11.243.164.399.164a.53.53 0 00.39-.156l2.797-2.797c.407-.406.891-.61 1.454-.61.562 0 1.044.2 1.445.602.4.401.601.885.601 1.453a1.94 1.94 0 01-.609 1.445L10.47 8.406a.506.506 0 00-.172.39c0 .157.055.29.164.4.11.109.242.163.398.163zm-6.641 5.562c.875 0 1.625-.307 2.25-.922l2.797-2.797a.584.584 0 00.156-.406.542.542 0 00-.164-.399.542.542 0 00-.399-.164.506.506 0 00-.39.172l-2.797 2.797a2.01 2.01 0 01-1.453.594 1.958 1.958 0 01-1.438-.594 1.984 1.984 0 01-.61-1.453c0-.563.204-1.047.61-1.453L5.562 7.5a.506.506 0 00.172-.39.542.542 0 00-.164-.4.542.542 0 00-.398-.163.506.506 0 00-.39.172L1.983 9.5a3.069 3.069 0 00-.937 2.25c0 .875.31 1.622.93 2.242.62.62 1.367.93 2.242.93zm2.984-5.563a.506.506 0 00.39-.171l1.595-1.594a.506.506 0 00.171-.39.542.542 0 00-.164-.4.542.542 0 00-.398-.163.506.506 0 00-.39.171L6.811 8.406a.506.506 0 00-.171.39c0 .157.054.29.164.4.11.109.242.163.398.163z" id="" fill="#474747" fill-rule="nonzero"/></g></svg>