<svg width="16" height="16" xmlns="http://www.w3.org/2000/svg"><g id="Icons-/-16-/-Menu-/-Dashboard-/-Inactive" stroke="none" stroke-width="1" fill="none" fill-rule="evenodd"><path d="M2.188 7.75L8 2.156l5.813 5.594c.114.104.25.151.406.14a.56.56 0 00.39-.187.528.528 0 00.141-.406.56.56 0 00-.188-.39L8.75 1.311a1.082 1.082 0 00-.75-.28c-.292 0-.542.093-.75.28L1.437 6.907a.56.56 0 00-.187.39.528.528 0 00.14.407.56.56 0 00.391.188.528.528 0 00.407-.141zM12.453 15c.313 0 .578-.11.797-.328.219-.219.328-.485.328-.797V9.547a.542.542 0 00-.164-.399.542.542 0 00-.398-.164.542.542 0 00-.399.164.542.542 0 00-.164.399v4.328H10.22v-3.75c0-.313-.11-.578-.328-.797A1.085 1.085 0 009.094 9H6.906c-.312 0-.578.11-.797.328a1.085 1.085 0 00-.328.797v3.75H3.547V9.547a.542.542 0 00-.164-.399.542.542 0 00-.399-.164.542.542 0 00-.398.164.542.542 0 00-.164.399v4.328c0 .313.11.578.328.797.219.219.484.328.797.328h8.906zm-3.36-1.125H6.907v-3.75h2.188v3.75z" id="" fill="#222" fill-rule="nonzero"/></g></svg>