<svg width="20" height="21" xmlns="http://www.w3.org/2000/svg"><g id="Icons-/-20-/-File-/-Download-/-Black" stroke="none" stroke-width="1" fill="none" fill-rule="evenodd"><path d="M10 16.008a.64.64 0 00.469-.195l3.047-3.047a.612.612 0 00.214-.47.656.656 0 00-.205-.478.656.656 0 00-.478-.205.612.612 0 00-.469.215l-1.894 1.875V2.433a.646.646 0 00-.205-.488A.672.672 0 0010 1.75a.64.64 0 00-.469.195.662.662 0 00-.195.489v11.27L7.44 11.808a.706.706 0 00-.488-.196.624.624 0 00-.469.205.672.672 0 00-.195.479.64.64 0 00.195.469l3.047 3.046a.64.64 0 00.469.196zm7.52 3.242c.338 0 .625-.12.859-.361a1.18 1.18 0 00.351-.85v-4.355a.64.64 0 00-.195-.47.622.622 0 00-.478-.214.635.635 0 00-.479.205.672.672 0 00-.195.479v3.808a.397.397 0 01-.41.41H2.988a.397.397 0 01-.41-.41v-3.808a.672.672 0 00-.195-.479.635.635 0 00-.479-.205.635.635 0 00-.478.205.672.672 0 00-.196.479v4.355c0 .339.118.625.352.86.234.234.52.351.86.351H17.52z" id="" fill="#222" fill-rule="nonzero"/></g></svg>