<svg xmlns="http://www.w3.org/2000/svg" width="48" height="48"><path d="M33.703 39.984c1.563 0 3.031-.265 4.406-.797a11.177 11.177 0 003.703-2.484c1.126-1.094 1.97-2.312 2.532-3.656.562-1.344.843-2.781.843-4.313 0-2.187-.593-4.187-1.78-6v-.047l-.048-.093a11.468 11.468 0 00-3.047-3.094 11.55 11.55 0 00-.937-3.844c-.625-1.5-1.547-2.844-2.766-4.031a12.776 12.776 0 00-4.125-2.719c-1.5-.594-3.109-.89-4.828-.89-2.625 0-5 .703-7.125 2.109a13.322 13.322 0 00-3.047 2.86 8.428 8.428 0 00-1.968-.235 7.999 7.999 0 00-3 .563 7.816 7.816 0 00-2.532 1.64c-.78.75-1.359 1.578-1.734 2.485a7.465 7.465 0 00-.61 3c0 .312.016.593.048.843-.97.594-1.844 1.36-2.625 2.297-1.5 1.844-2.25 3.953-2.25 6.328 0 1.375.25 2.672.75 3.89.5 1.22 1.25 2.313 2.25 3.282 1 .969 2.109 1.695 3.328 2.18 1.218.484 2.53.726 3.937.726h20.625zm0-3.328H13.078c-.969 0-1.86-.172-2.672-.515-.781-.313-1.531-.797-2.25-1.453-.656-.657-1.14-1.36-1.453-2.11l-.047-.094c-.343-.78-.515-1.64-.515-2.578a6.4 6.4 0 01.375-2.203 6.96 6.96 0 011.125-1.969h.046a6.255 6.255 0 011.875-1.64l1.782-1.032-.281-2.015a3.156 3.156 0 01-.047-.61c0-.593.109-1.156.328-1.687v-.047c.219-.5.547-.953.984-1.36a4.858 4.858 0 011.453-.937 4.403 4.403 0 011.688-.328c.469 0 .906.063 1.312.188l2.016.562 1.219-1.687a10.959 10.959 0 012.39-2.25c1.563-1.032 3.297-1.547 5.203-1.547 1.313 0 2.516.234 3.61.703a9.113 9.113 0 013.047 1.969c.906.906 1.578 1.89 2.015 2.953.407.906.64 1.89.703 2.953l.047 1.453 1.266.844a8.114 8.114 0 012.156 2.11l.094.14c.437.656.766 1.336.984 2.039.219.703.328 1.445.328 2.226 0 1.094-.203 2.11-.609 3.047-.406.938-1.008 1.79-1.805 2.555-.797.766-1.664 1.336-2.601 1.71a8.026 8.026 0 01-3.14.61zm-5.766-1.875c.47 0 .868-.164 1.196-.492.328-.328.492-.727.492-1.195V21.562l3.234 3.188c.313.344.703.516 1.172.516s.867-.164 1.196-.493c.328-.328.492-.726.492-1.195 0-.469-.172-.86-.516-1.172l-6.047-6.093a1.749 1.749 0 00-1.218-.47c-.47 0-.86.157-1.172.47l-6.094 6.093c-.313.313-.469.703-.469 1.172s.156.875.469 1.219c.344.312.742.469 1.195.469.453 0 .852-.172 1.195-.516l3.188-3.188v11.532c0 .468.164.867.492 1.195.328.328.727.492 1.195.492z" fill="#6D7278"/></svg>