<svg width="20" height="20" xmlns="http://www.w3.org/2000/svg"><g id="Icons-/-20-/-Edit-/-Inactive" stroke="none" stroke-width="1" fill="none" fill-rule="evenodd"><path d="M5.781 15.54l4.61-1.954a.777.777 0 00.195-.117l7.754-7.774c.273-.273.41-.605.41-.996 0-.39-.137-.722-.41-.996L16.797 2.16a1.356 1.356 0 00-.996-.41c-.39 0-.723.137-.996.41L7.05 9.914a.548.548 0 00-.137.215l-1.953 4.59c-.104.26-.059.488.137.683.195.196.423.241.683.137zm10.352-9.63L14.59 4.367l1.21-1.21 1.544 1.542-1.211 1.211zm-9.121 7.578l1.133-2.675 5.449-5.45 1.543 1.543-5.45 5.45-2.675 1.132zm11.035 5.762a.678.678 0 00.498-.205.678.678 0 00.205-.498.678.678 0 00-.205-.498.678.678 0 00-.498-.205H1.953a.678.678 0 00-.498.205.678.678 0 00-.205.498c0 .195.068.361.205.498a.678.678 0 00.498.205h16.094z" id="" fill="#222" fill-rule="nonzero"/></g></svg>