<svg xmlns="http://www.w3.org/2000/svg" width="20" height="20"><path fill="#222" d="M18.066 4.426a.678.678 0 00.498-.205.679.679 0 00.206-.498.675.675 0 00-.206-.498.675.675 0 00-.498-.205H1.895a.678.678 0 00-.499.205.678.678 0 00-.205.498c0 .195.069.361.205.498a.682.682 0 00.499.205h16.171zm-2.421 8.281a.729.729 0 00.507-.195l2.364-2.344c.143-.143.214-.313.214-.508s-.071-.364-.214-.508l-2.364-2.226a.695.695 0 00-.507-.186c-.196.007-.359.078-.489.215s-.192.303-.185.498a.73.73 0 00.224.508l1.836 1.719-1.875 1.836c-.143.13-.215.293-.215.488s.072.358.215.488c.13.143.293.215.489.215zm-2.676-2.09a.678.678 0 00.498-.205c.137-.137.205-.303.205-.498s-.068-.361-.205-.498a.678.678 0 00-.498-.205H1.934a.675.675 0 00-.498.205c-.137.137-.206.303-.206.498s.069.361.206.498a.675.675 0 00.498.205h11.035zM18.008 18a.678.678 0 00.498-.205c.137-.137.205-.303.205-.498s-.068-.361-.205-.498a.678.678 0 00-.498-.205H1.895a.678.678 0 00-.499.205c-.136.137-.205.303-.205.498s.069.361.205.498a.678.678 0 00.499.205h16.113z"/></svg>