<svg width="20" height="20" xmlns="http://www.w3.org/2000/svg"><g id="Icons-/-20-/-Loading" stroke="none" stroke-width="1" fill="none" fill-rule="evenodd"><path d="M18.367 10.883a.596.596 0 00.44-.176.625.625 0 00.193-.457 8.924 8.924 0 00-.703-3.498 8.964 8.964 0 00-1.934-2.865 8.964 8.964 0 00-2.865-1.934A8.924 8.924 0 0010 1.25a.61.61 0 00-.448.185.61.61 0 00-.185.448.61.61 0 00.185.448.61.61 0 00.448.185c1.055 0 2.057.199 3.006.597a7.825 7.825 0 012.46 1.67 7.583 7.583 0 011.653 2.461c.41.95.615 1.951.615 3.006a.61.61 0 00.185.448.61.61 0 00.448.185z" id="" fill="#000" fill-rule="nonzero"/></g></svg>