<svg xmlns="http://www.w3.org/2000/svg" width="20" height="20"><path fill="#222" d="M10 19.375a9.416 9.416 0 003.692-.742 9.476 9.476 0 003.025-2.041A9.457 9.457 0 0019.5 9.875a9.416 9.416 0 00-.742-3.692 9.476 9.476 0 00-2.041-3.025A9.457 9.457 0 0010 .374c-1.521 0-2.95.34-4.286 1.02a9.466 9.466 0 00-3.284 2.73.655.655 0 00-.13.501.638.638 0 00.26.445.654.654 0 00.5.13.64.64 0 00.446-.26 8.039 8.039 0 012.802-2.356A8.133 8.133 0 0110 1.711c1.113 0 2.17.216 3.173.65a8.015 8.015 0 012.598 1.743 8.023 8.023 0 011.744 2.598c.433 1.002.65 2.06.65 3.173s-.211 2.17-.632 3.173a8.266 8.266 0 01-1.762 2.598 8.023 8.023 0 01-2.598 1.744 7.916 7.916 0 01-3.173.65 8.15 8.15 0 01-3.692-.873 8.05 8.05 0 01-2.802-2.356.64.64 0 00-.445-.26.655.655 0 00-.501.13.64.64 0 00-.26.445.655.655 0 00.13.501 9.436 9.436 0 003.284 2.727A9.319 9.319 0 0010 19.375zm-.816-6.309a.66.66 0 00.482-.204l2.523-2.505c.124-.136.186-.296.186-.482s-.062-.346-.186-.482L9.666 6.888a.66.66 0 00-.482-.204.648.648 0 00-.474.194.644.644 0 00-.194.474.66.66 0 00.204.482l1.373 1.373H1.168a.643.643 0 00-.473.195c-.13.13-.195.287-.195.473s.065.343.195.473c.13.13.287.195.473.195h8.925L8.72 11.916a.66.66 0 00-.204.482c0 .186.065.344.194.474.13.13.288.194.474.194z"/></svg>