<svg width="20" height="20" xmlns="http://www.w3.org/2000/svg"><g id="Icons-/-20-/-Menu-/-Masivo-/-Inactive" stroke="none" stroke-width="1" fill="none" fill-rule="evenodd"><path d="M8.203 8.82a4.585 4.585 0 01-.098-.937c0-.17.007-.332.02-.488a1.922 1.922 0 01-1.24-.674 1.984 1.984 0 01-.498-1.338c0-.56.198-1.039.595-1.436a1.957 1.957 0 011.436-.595c.365 0 .703.09 1.016.273.312.182.553.423.722.723a4.26 4.26 0 011.348-.47 3.412 3.412 0 00-1.26-1.405 3.338 3.338 0 00-1.826-.528c-.95 0-1.761.336-2.432 1.006A3.313 3.313 0 004.98 5.383c0 .911.313 1.699.938 2.363A3.297 3.297 0 008.203 8.82zm3.965 2.5c.95 0 1.758-.332 2.422-.996.677-.677 1.015-1.49 1.015-2.441 0-.95-.335-1.761-1.005-2.432a3.313 3.313 0 00-2.432-1.006c-.95 0-1.761.336-2.432 1.006A3.313 3.313 0 008.73 7.883c0 .95.336 1.76 1.006 2.431a3.313 3.313 0 002.432 1.006zm0-1.406a1.96 1.96 0 01-1.436-.596 1.957 1.957 0 01-.595-1.435c0-.56.198-1.039.595-1.436a1.957 1.957 0 011.436-.595c.56 0 1.038.198 1.436.595.397.397.595.876.595 1.436 0 .56-.202 1.041-.605 1.445a1.94 1.94 0 01-1.426.586zm-9.922 6.484a.678.678 0 00.498-.205.678.678 0 00.205-.498c0-1.51.534-2.8 1.602-3.867 1.067-1.068 2.357-1.601 3.867-1.601.143 0 .293.006.45.02a3.827 3.827 0 01-.645-1.427 6.818 6.818 0 00-3.37.987 6.783 6.783 0 00-2.421 2.49 6.757 6.757 0 00-.889 3.398c0 .196.068.362.205.498a.678.678 0 00.498.205zm3.75 2.5a.678.678 0 00.498-.205.678.678 0 00.205-.498c0-1.51.534-2.8 1.602-3.867 1.067-1.068 2.357-1.601 3.867-1.601.365 0 .73.039 1.094.117a4.52 4.52 0 011.914-.84 6.872 6.872 0 00-3.008-.684c-1.901 0-3.522.67-4.863 2.012-1.341 1.341-2.012 2.962-2.012 4.863 0 .196.068.362.205.498a.678.678 0 00.498.205zm9.336.157a.678.678 0 00.498-.205.678.678 0 00.205-.498v-1.72h1.719a.678.678 0 00.498-.204.678.678 0 00.205-.498.678.678 0 00-.205-.498.678.678 0 00-.498-.205h-1.719v-1.72a.678.678 0 00-.205-.497.678.678 0 00-.498-.205.678.678 0 00-.498.205.678.678 0 00-.205.498v1.719H12.91a.678.678 0 00-.498.205.678.678 0 00-.205.498c0 .195.068.361.205.498a.678.678 0 00.498.205h1.719v1.719c0 .195.068.36.205.498a.678.678 0 00.498.205z" id="" fill="#000" fill-rule="nonzero"/></g></svg>