<svg width="16" height="16" xmlns="http://www.w3.org/2000/svg"><g id="Icons-/-16-/-Menu-/-Medicos-/-Inactive" stroke="none" stroke-width="1" fill="none" fill-rule="evenodd"><path d="M8 14.75c.483 0 .896-.17 1.237-.513.342-.341.513-.754.513-1.237 0-.392-.118-.743-.355-1.053a1.743 1.743 0 00-.903-.629v-1.49l3.5-3.5V4.182c.365-.11.666-.32.903-.63s.355-.66.355-1.052c0-.483-.17-.896-.513-1.237A1.686 1.686 0 0011.5.75c-.483 0-.896.17-1.237.513A1.686 1.686 0 009.75 2.5c0 .392.118.743.355 1.053.237.31.538.52.903.629v1.736L8 8.939 4.992 5.918V4.182c.365-.11.666-.32.903-.63s.355-.66.355-1.052c0-.483-.17-.896-.513-1.237A1.686 1.686 0 004.5.75c-.483 0-.896.17-1.237.513A1.686 1.686 0 002.75 2.5c0 .392.116.743.349 1.053.232.31.535.52.909.629v2.146h-.014l3.514 3.514v1.476c-.365.11-.666.32-.903.63s-.355.66-.355 1.052c0 .483.17.896.513 1.237.341.342.754.513 1.237.513zM4.5 3.266a.772.772 0 01-.547-.22.772.772 0 01-.219-.546c0-.21.076-.39.226-.54.15-.15.33-.226.54-.226.21 0 .39.076.54.226.15.15.226.33.226.54 0 .21-.076.39-.226.54a.737.737 0 01-.54.226zm7 0a.737.737 0 01-.54-.226.737.737 0 01-.226-.54c0-.21.076-.39.226-.54.15-.15.33-.226.54-.226.21 0 .39.076.54.226.15.15.226.33.226.54 0 .21-.078.392-.233.547a.726.726 0 01-.533.219zM8 13.766a.737.737 0 01-.54-.226.737.737 0 01-.226-.54c0-.21.076-.39.226-.54.15-.15.33-.226.54-.226.21 0 .387.078.533.233a.705.705 0 01.233.533c0 .21-.076.39-.226.54a.737.737 0 01-.54.226z" id="" fill="#222" fill-rule="nonzero"/></g></svg>