<svg width="20" height="20" xmlns="http://www.w3.org/2000/svg"><g id="Filtro-/-sm-/-Aplicado-/-Ver-Buscador" stroke="none" stroke-width="1" fill="none" fill-rule="evenodd"><g id="Group"><rect id="Rectangle" stroke="#222" x=".5" y=".5" width="19" height="19" rx="9.5"/><path d="M7.986 11.25a.558.558 0 00.465-.232l4.662-5.784a.616.616 0 00.137-.382.558.558 0 00-.232-.465.579.579 0 00-.438-.123.564.564 0 00-.396.218l-4.198 5.21-4.17-5.182a.564.564 0 00-.396-.219.579.579 0 00-.438.123c-.127.1-.2.232-.218.397a.579.579 0 00.123.437l4.634 5.77a.558.558 0 00.465.232z" transform="translate(2 2)" fill="#474747" fill-opacity=".6" fill-rule="nonzero" id=""/></g></g></svg>