<svg xmlns="http://www.w3.org/2000/svg" width="24" height="24"><g fill="none" opacity=".4"><g fill="#000"><path d="M17.193 13.733a4.903 4.903 0 00.31-1.733 4.954 4.954 0 00-4.954-4.954c-.585 0-1.164.105-1.712.31L12 8.555A3.517 3.517 0 0116.059 12c0 .179-.015.358-.043.534l1.177 1.2z"/><path d="M23.765 11.66c-2.434-4.499-6.702-7.222-11.426-7.222-1.286.003-2.563.21-3.784.614l1.163 1.17a10.731 10.731 0 012.621-.34c4.067 0 7.764 2.269 9.967 6.09a12.822 12.822 0 01-3.156 3.682l1.026 1.026a14.387 14.387 0 003.61-4.333l.188-.347-.209-.34zM2.517 3.174l3.221 3.222a14.083 14.083 0 00-4.831 5.265L.719 12l.188.347c2.434 4.5 6.702 7.222 11.425 7.222 1.844 0 3.663-.418 5.323-1.22l3.611 3.61 1.264-1.083L3.752 2.098 2.517 3.174zm7.042 7.042l4.803 4.803a3.474 3.474 0 01-1.806.52A3.515 3.515 0 019.039 12c.008-.63.188-1.248.52-1.784zM8.512 9.17a4.948 4.948 0 006.897 6.897l1.155 1.156a10.777 10.777 0 01-4.232.866c-4.066 0-7.764-2.267-9.966-6.088a12.481 12.481 0 014.42-4.55L8.512 9.17z"/></g><path d="M0 0h24v24H0z"/></g></svg>