<svg xmlns="http://www.w3.org/2000/svg" width="24" height="24"><defs><filter id="prefix__a"><feColorMatrix in="SourceGraphic" values="0 0 0 0 0.670588 0 0 0 0 0.670588 0 0 0 0 0.670588 0 0 0 1.000000 0"/></filter></defs><g fill="none" fill-rule="evenodd" filter="url(#prefix__a)" opacity=".4" transform="translate(-339 -209)"><g fill-rule="nonzero"><g fill="#000"><path d="M362.281 220.66c-2.434-4.499-6.702-7.222-11.425-7.222-4.724 0-9 2.723-11.412 7.223l-.202.339.188.347c2.434 4.5 6.702 7.222 11.426 7.222 4.723 0 8.998-2.687 11.425-7.222l.189-.347-.188-.34zm-11.425 6.428c-4.067 0-7.8-2.267-9.967-6.088 2.167-3.82 5.9-6.088 9.967-6.088 4.066 0 7.756 2.275 9.959 6.088-2.203 3.82-5.9 6.088-9.96 6.088z"/><path d="M351.065 216.067a4.955 4.955 0 10.074 9.908 4.955 4.955 0 00-.074-9.907zm0 8.465a3.511 3.511 0 01.034-7.02 3.51 3.51 0 013.512 3.488 3.52 3.52 0 01-3.546 3.532z"/></g><path d="M339 209h24v24h-24z"/></g></g></svg>