<svg width="16" height="16" xmlns="http://www.w3.org/2000/svg"><g id="Icons-/-16-/-Menu-/-Reportes-/-Inactive" stroke="none" stroke-width="1" fill="none" fill-rule="evenodd"><path d="M13.453 14.031c.156 0 .29-.054.399-.164a.542.542 0 00.164-.398.542.542 0 00-.164-.399.542.542 0 00-.399-.164l-10.282.001V2.594a.541.541 0 00-.104-.33l-.06-.069a.542.542 0 00-.398-.164.542.542 0 00-.398.164.542.542 0 00-.164.399v10.875c0 .156.055.289.164.398a.54.54 0 00.398.164h10.844zm-1.875-2.062c.156 0 .29-.055.399-.164a.542.542 0 00.164-.399V3.578a.542.542 0 00-.164-.398.542.542 0 00-.399-.164.542.542 0 00-.398.164.542.542 0 00-.164.398v7.828c0 .156.054.29.164.399a.54.54 0 00.398.164zm-5.984 0a.543.543 0 00.398-.164.542.542 0 00.164-.399V5.61a.542.542 0 00-.164-.398.542.542 0 00-.398-.164.542.542 0 00-.399.164.542.542 0 00-.164.398v5.797c0 .156.055.29.164.399.11.11.242.164.399.164zm2.984 0c.156 0 .29-.055.399-.164a.542.542 0 00.164-.399V7.578a.53.53 0 00-.172-.398.55.55 0 00-.39-.164.542.542 0 00-.4.164.542.542 0 00-.163.398v3.828c0 .156.054.29.164.399a.54.54 0 00.398.164z" id="" fill="#222" fill-rule="nonzero"/></g></svg>