<svg width="16" height="16" xmlns="http://www.w3.org/2000/svg"><g id="Icons-/-16-/-search-/-Inactive" stroke="none" stroke-width="1" fill="none" fill-rule="evenodd" opacity=".5"><path d="M14.382 13.143a.338.338 0 01.094.25.457.457 0 01-.094.281l-.719.688a.389.389 0 01-.281.125.297.297 0 01-.25-.125l-1.288-1.268a.416.416 0 01-.094-.25v-.438c-.583.5-1.24.89-1.969 1.172A6.29 6.29 0 017.5 14a6.313 6.313 0 01-3.266-.875 6.567 6.567 0 01-2.359-2.36A6.313 6.313 0 011 7.5c0-1.188.292-2.276.875-3.266a6.567 6.567 0 012.36-2.359A6.313 6.313 0 017.5 1a6.32 6.32 0 013.266.875 6.567 6.567 0 012.359 2.36c.583.989.875 2.077.875 3.265 0 .792-.14 1.552-.422 2.281a6.713 6.713 0 01-1.172 1.969h.438c.104 0 .187.031.25.094l1.288 1.299zM7.5 12.5a4.89 4.89 0 002.5-.672A4.964 4.964 0 0011.828 10a4.89 4.89 0 00.672-2.5 4.89 4.89 0 00-.672-2.5A4.964 4.964 0 0010 3.172 4.89 4.89 0 007.5 2.5a4.89 4.89 0 00-2.5.672A4.964 4.964 0 003.172 5 4.89 4.89 0 002.5 7.5c0 .896.224 1.73.672 2.5A4.964 4.964 0 005 11.828a4.89 4.89 0 002.5.672z" id="search" fill="#474747" fill-rule="nonzero"/></g></svg>