<svg width="20" height="21" xmlns="http://www.w3.org/2000/svg"><g id="Icons-/-20-/-View-/-Inactive" stroke="none" stroke-width="1" fill="none" fill-rule="evenodd"><path d="M10 17.004c1.693 0 3.19-.326 4.492-.977a8.326 8.326 0 002.715-2.187c.456-.573.86-1.283 1.211-2.13.26-.624.39-1.028.39-1.21 0-.182-.136-.586-.41-1.21-.338-.847-.735-1.557-1.191-2.13a8.065 8.065 0 00-2.715-2.187c-1.289-.651-2.786-.977-4.492-.977s-3.21.326-4.512.977A8.392 8.392 0 002.793 7.16c-.443.56-.84 1.27-1.191 2.13-.247.562-.382.945-.406 1.149l-.005.061c0 .182.137.586.41 1.21.352.86.75 1.57 1.192 2.13a8.065 8.065 0 002.715 2.187c1.302.651 2.8.977 4.492.977zm-.01-1.406c-1.478 0-2.77-.274-3.877-.82a6.68 6.68 0 01-2.226-1.817c-.521-.638-.944-1.458-1.27-2.461.326-1.003.749-1.823 1.27-2.46a6.68 6.68 0 012.226-1.817c1.107-.56 2.403-.84 3.887-.84s2.773.28 3.867.84a6.38 6.38 0 012.227 1.816c.52.638.944 1.458 1.27 2.461-.326 1.003-.743 1.823-1.25 2.46h-.02a6.433 6.433 0 01-2.227 1.817c-1.107.547-2.399.82-3.877.82zm.01-1.739c.938 0 1.735-.328 2.393-.986a3.26 3.26 0 00.986-2.393c0-.937-.332-1.731-.996-2.382-.651-.664-1.445-.996-2.383-.996s-1.735.328-2.393.986c-.657.657-.986 1.455-.986 2.392 0 .938.329 1.735.986 2.393.658.658 1.455.986 2.393.986zm0-1.386a1.918 1.918 0 01-1.406-.586 1.92 1.92 0 01-.586-1.407c0-.546.195-1.015.586-1.406.39-.39.86-.586 1.406-.586.547 0 1.016.196 1.406.586.39.39.586.86.586 1.406 0 .547-.195 1.016-.586 1.407-.39.39-.86.586-1.406.586z" id="" fill="#222" fill-rule="nonzero"/></g></svg>