<svg xmlns="http://www.w3.org/2000/svg" width="16" height="16"><path d="M12.266 14.75a.928.928 0 00.69-.287.961.961 0 00.28-.697V5.562c0-.273-.09-.5-.273-.683l-3.8-3.842a1.705 1.705 0 00-.207-.15C8.93.868 8.911.859 8.902.859a.153.153 0 00-.04-.027A1.002 1.002 0 008.464.75H3.748a.974.974 0 00-.704.287.94.94 0 00-.294.697v12.032a.94.94 0 00.294.697c.196.191.43.287.704.287h8.518zm-.014-.984H3.734V1.734h4.252v3.282a.94.94 0 00.294.697c.196.191.43.287.704.287h3.268v7.766zm-.533-8.75H8.97V2.254l2.748 2.762zM8.492 7.859a.489.489 0 00.492-.492.47.47 0 00-.143-.348.475.475 0 00-.349-.144h-3.5a.47.47 0 00-.348.144.47.47 0 00-.144.348c0 .137.048.253.144.349a.47.47 0 00.348.143h3.5zm2.625 2.188c.137 0 .25-.046.342-.137.1-.1.15-.219.15-.355a.474.474 0 00-.143-.349.474.474 0 00-.349-.143H4.992a.47.47 0 00-.348.143.475.475 0 00-.144.349c0 .136.048.253.144.348a.47.47 0 00.348.144h6.125zm-1.75 2.187a.489.489 0 00.492-.492.47.47 0 00-.143-.348.475.475 0 00-.349-.144H4.992a.47.47 0 00-.348.144.47.47 0 00-.144.348c0 .137.048.253.144.349a.47.47 0 00.348.143h4.375z" fill="#F7B500"/></svg>