<svg width="20" height="21" xmlns="http://www.w3.org/2000/svg"><g id="Icons-/-20-/-File-/-Upload-/-Black" stroke="none" stroke-width="1" fill="none" fill-rule="evenodd"><path d="M10 16.008a.672.672 0 00.479-.195.624.624 0 00.205-.47V4.056l1.875 1.894c.143.13.306.196.488.196a.64.64 0 00.469-.196.65.65 0 00.195-.478.65.65 0 00-.195-.479l-3.047-3.047A.64.64 0 0010 1.75a.64.64 0 00-.469.195L6.484 4.992a.65.65 0 00-.195.479.65.65 0 00.195.478.64.64 0 00.47.196.64.64 0 00.468-.196l1.894-1.894v11.289a.63.63 0 00.205.469c.137.13.297.195.479.195zm7.52 3.242c.338 0 .625-.12.859-.361a1.18 1.18 0 00.351-.85v-4.355a.64.64 0 00-.195-.47.622.622 0 00-.478-.214.635.635 0 00-.479.205.672.672 0 00-.195.479v3.808a.397.397 0 01-.41.41H2.988a.397.397 0 01-.41-.41v-3.808a.672.672 0 00-.195-.479.635.635 0 00-.479-.205.635.635 0 00-.478.205.672.672 0 00-.196.479v4.355c0 .339.118.625.352.86.234.234.52.351.86.351H17.52z" id="" fill="#222" fill-rule="nonzero"/></g></svg>