<?xml version="1.0" encoding="UTF-8"?>
<svg width="16px" height="16px" viewBox="0 0 16 16" version="1.1" xmlns="http://www.w3.org/2000/svg" xmlns:xlink="http://www.w3.org/1999/xlink">
    <title>Icons / 16 / Menu / ABM / Inactive</title>
    <g id="Icons-/-16-/-Menu-/-ABM-/-Inactive" stroke="none" stroke-width="1" fill="none" fill-rule="evenodd">
        <path d="M6.4375,15 C6.59375,15 6.7265625,14.9453125 6.8359375,14.8359375 C6.9453125,14.7265625 7,14.59375 7,14.4375 C7,14.28125 6.9453125,14.1484375 6.8359375,14.0390625 C6.7265625,13.9296875 6.59375,13.875 6.4375,13.875 L2.125,13.875 L2.125,2.125 L13.875,2.125 L13.875,7.4375 C13.875,7.59375 13.9322917,7.7265625 14.046875,7.8359375 C14.1614583,7.9453125 14.2942708,8 14.4453125,8 C14.5963542,8 14.7265625,7.9453125 14.8359375,7.8359375 C14.9453125,7.7265625 15,7.59375 15,7.4375 L15,2.125 C15,1.8125 14.890625,1.546875 14.671875,1.328125 C14.453125,1.109375 14.1875,1 13.875,1 L2.125,1 C1.8125,1 1.546875,1.109375 1.328125,1.328125 C1.109375,1.546875 1,1.8125 1,2.125 L1,13.875 C1,14.1875 1.109375,14.453125 1.328125,14.671875 C1.546875,14.890625 1.8125,15 2.125,15 L6.4375,15 Z M8.4375,5.125 C8.59375,5.125 8.7265625,5.0703125 8.8359375,4.9609375 C8.9453125,4.8515625 9,4.71875 9,4.5625 C9,4.40625 8.9453125,4.2734375 8.8359375,4.1640625 C8.7265625,4.0546875 8.59375,4 8.4375,4 L3.5625,4 C3.41666667,4 3.28645833,4.0546875 3.171875,4.1640625 C3.05729167,4.2734375 3,4.40625 3,4.5625 C3,4.71875 3.05729167,4.8515625 3.171875,4.9609375 C3.28645833,5.0703125 3.41666667,5.125 3.5625,5.125 L8.4375,5.125 Z M6.4375,8.125 C6.59375,8.125 6.7265625,8.0703125 6.8359375,7.9609375 C6.9453125,7.8515625 7,7.71875 7,7.5625 C7,7.40625 6.9453125,7.2734375 6.8359375,7.1640625 C6.7265625,7.0546875 6.59375,7 6.4375,7 L3.5625,7 C3.41666667,7 3.28645833,7.0546875 3.171875,7.1640625 C3.05729167,7.2734375 3,7.40625 3,7.5625 C3,7.71875 3.05729167,7.8515625 3.171875,7.9609375 C3.28645833,8.0703125 3.41666667,8.125 3.5625,8.125 L6.4375,8.125 Z M14.421875,15 C14.4635417,15 14.5,14.9947917 14.53125,14.984375 C14.6875,14.953125 14.8098958,14.8723958 14.8984375,14.7421875 C14.9869792,14.6119792 15.015625,14.4739583 14.984375,14.328125 C14.8802083,13.8072917 14.6640625,13.3489583 14.3359375,12.953125 C14.0078125,12.5572917 13.6041667,12.265625 13.125,12.078125 C13.4166667,11.890625 13.6432292,11.6458333 13.8046875,11.34375 C13.9661458,11.0416667 14.046875,10.7135417 14.046875,10.359375 C14.046875,9.78645833 13.8463542,9.29947917 13.4453125,8.8984375 C13.0442708,8.49739583 12.5598958,8.296875 11.9921875,8.296875 C11.4244792,8.296875 10.9375,8.49739583 10.53125,8.8984375 C10.125,9.29947917 9.921875,9.78645833 9.921875,10.359375 C9.921875,10.703125 10.0052083,11.0286458 10.171875,11.3359375 C10.3385417,11.6432292 10.5677083,11.890625 10.859375,12.078125 C10.3802083,12.265625 9.9765625,12.5572917 9.6484375,12.953125 C9.3203125,13.3489583 9.10416667,13.8072917 9,14.328125 C8.96875,14.4739583 8.99739583,14.6119792 9.0859375,14.7421875 C9.17447917,14.8723958 9.296875,14.953125 9.453125,14.984375 C9.609375,15.015625 9.75,14.9869792 9.875,14.8984375 C10,14.8098958 10.078125,14.6875 10.109375,14.53125 C10.1927083,14.0833333 10.4114583,13.7135417 10.765625,13.421875 C11.1197917,13.1302083 11.5286458,12.984375 11.9921875,12.984375 C12.4557292,12.984375 12.8645833,13.1302083 13.21875,13.421875 C13.5729167,13.7135417 13.7916667,14.0833333 13.875,14.53125 C13.90625,14.6666667 13.9739583,14.7786458 14.078125,14.8671875 C14.1822917,14.9557292 14.296875,15 14.421875,15 Z M11.9921875,11.296875 C11.7369792,11.296875 11.5182292,11.2057292 11.3359375,11.0234375 C11.1536458,10.8411458 11.0625,10.6197917 11.0625,10.359375 C11.0625,10.0989583 11.1510417,9.88020833 11.328125,9.703125 C11.515625,9.515625 11.7369792,9.421875 11.9921875,9.421875 C12.2473958,9.421875 12.46875,9.51302083 12.65625,9.6953125 C12.84375,9.87760417 12.9375,10.0989583 12.9375,10.359375 C12.9375,10.6197917 12.84375,10.8411458 12.65625,11.0234375 C12.46875,11.2057292 12.2473958,11.296875 11.9921875,11.296875 Z M6.4375,11.125 C6.59375,11.125 6.7265625,11.0703125 6.8359375,10.9609375 C6.9453125,10.8515625 7,10.71875 7,10.5625 C7,10.40625 6.9453125,10.2734375 6.8359375,10.1640625 C6.7265625,10.0546875 6.59375,10 6.4375,10 L3.5625,10 C3.41666667,10 3.28645833,10.0546875 3.171875,10.1640625 C3.05729167,10.2734375 3,10.40625 3,10.5625 C3,10.71875 3.05729167,10.8515625 3.171875,10.9609375 C3.28645833,11.0703125 3.41666667,11.125 3.5625,11.125 L6.4375,11.125 Z" id="" fill="#222222" fill-rule="nonzero"></path>
    </g>
</svg>