<?xml version="1.0" encoding="UTF-8"?>
<svg width="16px" height="16px" viewBox="0 0 16 16" version="1.1" xmlns="http://www.w3.org/2000/svg" xmlns:xlink="http://www.w3.org/1999/xlink">
    <title>Icons / 16 / Menu / Afiliado / Inactive</title>
    <g id="Icons-/-16-/-Menu-/-Afiliado-/-Inactive" stroke="none" stroke-width="1" fill="none" fill-rule="evenodd">
        <path d="M12.65625,14.984375 C12.8125,14.984375 12.9453125,14.9296875 13.0546875,14.8203125 C13.1640625,14.7109375 13.21875,14.578125 13.21875,14.421875 C13.2083333,13.7135417 13.0677083,13.0364583 12.796875,12.390625 C12.5364583,11.765625 12.1666667,11.2135417 11.6875,10.734375 C11.2083333,10.2552083 10.65625,9.88541667 10.03125,9.625 C9.82291667,9.53125 9.60416667,9.453125 9.375,9.390625 C10.0104167,9.18229167 10.5677083,8.83854167 11.046875,8.359375 C11.890625,7.515625 12.3125,6.5 12.3125,5.3125 C12.3125,4.125 11.890625,3.11197917 11.046875,2.2734375 C10.203125,1.43489583 9.1875,1.015625 8,1.015625 C6.8125,1.015625 5.79947917,1.43489583 4.9609375,2.2734375 C4.12239583,3.11197917 3.703125,4.125 3.703125,5.3125 C3.703125,6.5 4.11979167,7.515625 4.953125,8.359375 C5.43229167,8.83854167 5.98958333,9.18229167 6.625,9.390625 C6.38541667,9.453125 6.16666667,9.53125 5.96875,9.625 C5.34375,9.88541667 4.79166667,10.2552083 4.3125,10.734375 C3.83333333,11.2135417 3.46354167,11.765625 3.203125,12.390625 C2.93229167,13.0364583 2.796875,13.7135417 2.796875,14.421875 C2.796875,14.578125 2.8515625,14.7109375 2.9609375,14.8203125 C3.0703125,14.9296875 3.203125,14.984375 3.359375,14.984375 C3.515625,14.984375 3.6484375,14.9296875 3.7578125,14.8203125 C3.8671875,14.7109375 3.921875,14.578125 3.921875,14.421875 C3.921875,13.296875 4.3203125,12.3333333 5.1171875,11.53125 C5.9140625,10.7291667 6.87760417,10.328125 8.0078125,10.328125 C9.13802083,10.328125 10.1015625,10.7265625 10.8984375,11.5234375 C11.6953125,12.3203125 12.09375,13.2864583 12.09375,14.421875 C12.09375,14.578125 12.1484375,14.7109375 12.2578125,14.8203125 C12.3671875,14.9296875 12.5,14.984375 12.65625,14.984375 Z M8,8.5 C7.125,8.5 6.375,8.1875 5.75,7.5625 C5.13541667,6.9375 4.828125,6.1875 4.828125,5.3125 C4.828125,4.4375 5.13802083,3.69010417 5.7578125,3.0703125 C6.37760417,2.45052083 7.125,2.140625 8,2.140625 C8.875,2.140625 9.62239583,2.45052083 10.2421875,3.0703125 C10.8619792,3.69010417 11.171875,4.4375 11.171875,5.3125 C11.171875,6.1875 10.8619792,6.9375 10.2421875,7.5625 C9.62239583,8.1875 8.875,8.5 8,8.5 Z" id="" fill="#222222" fill-rule="nonzero"></path>
    </g>
</svg>