<?xml version="1.0" encoding="utf-8"?>
<!-- Generator: Adobe Illustrator 24.2.1, SVG Export Plug-In . SVG Version: 6.00 Build 0)  -->
<svg version="1.1" id="Capa_1" xmlns="http://www.w3.org/2000/svg" xmlns:xlink="http://www.w3.org/1999/xlink" x="0px" y="0px"
	 viewBox="0 0 30 30" style="enable-background:new 0 0 30 30;" xml:space="preserve">
<style type="text/css">
	.st0{fill:#444444;}
</style>
<g>
	<path class="st0" d="M3.5,30h23c1.9,0,3.5-1.6,3.5-3.5v-23C30,1.6,28.4,0,26.5,0l-23,0C1.6,0,0,1.6,0,3.5l0,23
		C0,28.4,1.6,30,3.5,30z M1,3.5C1,2.1,2.1,1,3.5,1h23C27.9,1,29,2.1,29,3.5v23c0,1.4-1.1,2.5-2.5,2.5h-23C2.1,29,1,27.9,1,26.5V3.5z
		"/>
	<path class="st0" d="M19.8,14.4c0,0,0-0.1-0.1-0.1l-6-6c-0.1,0-0.1-0.1-0.2-0.1C13.4,8.1,13.3,8,13.2,8c-0.1,0-0.1,0-0.1,0H13
		c-0.1,0-0.1,0-0.1,0c-0.1,0-0.2,0.1-0.3,0.1C12.2,8.3,12,8.6,12,9c0,0.1,0,0.2,0,0.3c0,0.1,0.1,0.2,0.1,0.3c0,0.1,0,0.1,0.1,0.1
		l0,0l5.3,5.3l-5.3,5.3c0,0-0.1,0.1-0.1,0.1c-0.1,0.1-0.1,0.2-0.2,0.3c0,0.1-0.1,0.3,0,0.4c0,0.3,0.3,0.7,0.6,0.8
		c0.1,0,0.2,0.1,0.3,0.1c0.1,0,0.2,0,0.3,0c0.2,0,0.3-0.1,0.4-0.2c0,0,0.1,0,0.1-0.1l6-6c0,0,0.1-0.1,0.1-0.1c0-0.1,0.1-0.1,0.1-0.2
		c0.1-0.3,0.1-0.6,0-0.9C19.9,14.5,19.8,14.4,19.8,14.4z"/>
</g>
</svg>
