<svg xmlns="http://www.w3.org/2000/svg" width="20" height="20" viewBox="0 0 20 20">
    <g fill="none" fill-rule="evenodd">
        <g fill="#222" fill-rule="nonzero">
            <path d="M1128.694 35.407c.572 0 1.048.477 1.048 1.048 0 .559-.463 1.049-1.048 1.049-.586 0-1.035-.49-1.035-1.049 0-.571.463-1.048 1.035-1.048zm.177-7.938c1.743 0 2.9.967 2.9 2.247 0 1.28-1.157 2.205-1.525 2.491-.749.586-.763.994-.763 1.702 0 .259-.136.559-.803.559-.558 0-.749-.205-.749-.913 0-1.17.518-1.729.912-2.07.45-.38 1.212-.803 1.212-1.538 0-.626-.544-.926-1.225-.926-1.389 0-1.09 1.048-1.825 1.048-.367 0-.817-.245-.817-.776 0-.735.845-1.824 2.683-1.824zM1129 22c-5.527 0-10 4.473-10 10v9.219c0 .431.35.781.781.781H1129c5.527 0 10-4.473 10-10s-4.473-10-10-10zm0 18.438h-8.438V32c0-4.663 3.774-8.438 8.438-8.438 4.663 0 8.438 3.774 8.438 8.438 0 4.663-3.774 8.438-8.438 8.438z" transform="translate(-1119 -22)"/>
        </g>
    </g>
</svg>
