<?xml version="1.0" encoding="UTF-8"?>
<svg width="20px" height="20px" viewBox="0 0 20 20" version="1.1" xmlns="http://www.w3.org/2000/svg" xmlns:xlink="http://www.w3.org/1999/xlink">
    <title>Filtro / sm / Aplicado / Cancel </title>
    <defs>
        <filter id="filter-1">
            <feColorMatrix in="SourceGraphic" type="matrix" values="0 0 0 0 0.901961 0 0 0 0 0.223529 0 0 0 0 0.274510 0 0 0 1.000000 0"></feColorMatrix>
        </filter>
    </defs>
    <g id="Filtro-/-sm-/-Aplicado-/-Cancel-" stroke="none" stroke-width="1" fill="none" fill-rule="evenodd">
        <g id="Group">
            <rect id="Rectangle" stroke="#E63946" x="0.5" y="0.5" width="19" height="19" rx="9.5"></rect>
            <g transform="translate(3.000000, 3.000000)" id="Icons-/-24-/-close-/-Hover" filter="url(#filter-1)">
                <g>
                    <path d="M10.8623047,11.1933594 C11.0126953,11.1933594 11.1402995,11.1409505 11.2451172,11.0361328 C11.3499349,10.9313151 11.4023438,10.8037109 11.4023438,10.6533203 C11.4023438,10.5029297 11.3476562,10.3776042 11.2382812,10.2773438 L7.765625,6.79101562 L11.2382812,3.3046875 C11.3476562,3.20442708 11.4023438,3.07910156 11.4023438,2.92871094 C11.4023438,2.77832031 11.3499349,2.65071615 11.2451172,2.54589844 C11.1402995,2.44108073 11.0126953,2.38867188 10.8623047,2.38867188 C10.7119141,2.38867188 10.5865885,2.44335938 10.4863281,2.55273438 L7,6.02539062 L3.51367188,2.55273438 C3.41341146,2.44335938 3.28808594,2.38867188 3.13769531,2.38867188 C2.98730469,2.38867188 2.85970052,2.44108073 2.75488281,2.54589844 C2.6500651,2.65071615 2.59765625,2.77832031 2.59765625,2.92871094 C2.59765625,3.07910156 2.65234375,3.20442708 2.76171875,3.3046875 L6.234375,6.79101562 L2.76171875,10.2773438 C2.65234375,10.3776042 2.59765625,10.5029297 2.59765625,10.6533203 C2.59765625,10.8037109 2.6500651,10.9313151 2.75488281,11.0361328 C2.85970052,11.1409505 2.98730469,11.1933594 3.13769531,11.1933594 C3.28808594,11.1933594 3.41341146,11.1386719 3.51367188,11.0292969 L7,7.54296875 L10.4863281,11.0292969 C10.5865885,11.1386719 10.7119141,11.1933594 10.8623047,11.1933594 Z" id="" fill="#474747" fill-rule="nonzero"></path>
                </g>
            </g>
        </g>
    </g>
</svg>