<svg xmlns="http://www.w3.org/2000/svg" width="36" height="29" viewBox="0 0 36 29">
    <g fill="none" fill-rule="evenodd">
        <g fill="#6D7278" fill-rule="nonzero">
            <path d="M624.344 824.594c.531 0 .968-.188 1.312-.563l.094-.093 24.656-24.75c.375-.344.563-.782.563-1.313 0-.531-.18-.977-.54-1.336-.359-.36-.804-.539-1.335-.539-.532 0-.969.188-1.313.563l-23.015 23.062-6.235-10.922c-.281-.437-.672-.726-1.172-.867-.5-.14-.976-.086-1.43.164-.452.25-.741.625-.866 1.125s-.063.984.187 1.453l7.453 13.031c.313.563.781.875 1.406.938.063.031.141.047.235.047z" transform="translate(-615 -796)"/>
        </g>
    </g>
</svg>
