<svg xmlns="http://www.w3.org/2000/svg" width="30" height="30" viewBox="0 0 30 30">
    <g fill="none" fill-rule="evenodd">
        <path d="M0 0L24 0 24 24 0 24z" transform="translate(3 3)"/>
        <path fill="#474747" d="M13.83 18.986c-.135-.023-.265-.074-.379-.15-.058-.037-.108-.081-.159-.128l-6-6c-.041-.045-.053-.055-.09-.103-.04-.055-.076-.114-.106-.175-.128-.27-.128-.59 0-.86.03-.06.065-.12.106-.174.037-.048.049-.059.09-.103l6-6c.045-.041.055-.053.103-.09.127-.096.277-.161.435-.188.112-.02.227-.02.34 0 .09.015.177.043.259.082.312.148.53.457.565.8.014.137 0 .275-.041.406-.035.108-.088.21-.157.301-.036.049-.048.059-.09.103L9.415 12l5.293 5.293.046.05c.039.047.05.058.083.11.062.094.108.2.135.31.022.09.031.18.028.272-.012.345-.208.668-.51.837-.099.056-.207.095-.32.114-.06.01-.075.01-.135.014h-.069c-.06-.004-.076-.004-.135-.014z" opacity=".5" transform="translate(3 3)"/>
    </g>
</svg>
