<?xml version="1.0" encoding="utf-8"?>
<!-- Generator: Adobe Illustrator 24.2.3, SVG Export Plug-In . SVG Version: 6.00 Build 0)  -->
<svg version="1.1" id="Capa_1" xmlns="http://www.w3.org/2000/svg" xmlns:xlink="http://www.w3.org/1999/xlink" x="0px" y="0px"
	 viewBox="0 0 30 30" style="enable-background:new 0 0 30 30;" xml:space="preserve">
<style type="text/css">
	.st0{fill:none;}
	.st1{opacity:0.5;fill-rule:evenodd;clip-rule:evenodd;fill:#474747;enable-background:new    ;}
</style>
<g>
	<path class="st0" d="M27,27H3V3h24V27z"/>
	<path class="st1" d="M13.2,8c0.1,0,0.3,0.1,0.4,0.1c0.1,0,0.1,0.1,0.2,0.1l6,6c0,0,0.1,0.1,0.1,0.1c0,0.1,0.1,0.1,0.1,0.2
		c0.1,0.3,0.1,0.6,0,0.9c0,0.1-0.1,0.1-0.1,0.2c0,0,0,0.1-0.1,0.1l-6,6c0,0-0.1,0.1-0.1,0.1c-0.1,0.1-0.3,0.2-0.4,0.2
		c-0.1,0-0.2,0-0.3,0c-0.1,0-0.2,0-0.3-0.1c-0.3-0.1-0.5-0.5-0.6-0.8c0-0.1,0-0.3,0-0.4c0-0.1,0.1-0.2,0.2-0.3c0,0,0-0.1,0.1-0.1
		l5.3-5.3l-5.3-5.3l0,0c0,0-0.1-0.1-0.1-0.1c-0.1-0.1-0.1-0.2-0.1-0.3c0-0.1,0-0.2,0-0.3c0-0.3,0.2-0.7,0.5-0.8
		C12.6,8.1,12.7,8,12.8,8c0.1,0,0.1,0,0.1,0H13C13.1,8,13.1,8,13.2,8L13.2,8z"/>
</g>
</svg>
