<svg xmlns="http://www.w3.org/2000/svg" width="21" height="21" viewBox="0 0 21 21">
    <g fill="none" fill-rule="evenodd">
        <g fill="#474747" fill-rule="nonzero">
            <g>
                <g>
                    <path d="M13.889 12.048l-2.856-2.141V5.544c0-.438-.354-.793-.793-.793-.439 0-.793.355-.793.793v4.76c0 .25.117.485.317.634l3.173 2.38c.143.107.31.158.475.158.242 0 .48-.108.635-.318.264-.35.192-.847-.158-1.11z" transform="translate(-874 -132) translate(362 132) translate(512)"/>
                    <path d="M10.24 0C4.593 0 0 4.593 0 10.24s4.593 10.24 10.24 10.24 10.24-4.593 10.24-10.24S15.887 0 10.24 0zm0 18.894c-4.771 0-8.654-3.883-8.654-8.654S5.47 1.586 10.24 1.586c4.772 0 8.654 3.883 8.654 8.654s-3.883 8.654-8.654 8.654z" transform="translate(-874 -132) translate(362 132) translate(512)"/>
                </g>
            </g>
        </g>
    </g>
</svg>
