<?xml version="1.0" encoding="UTF-8"?>
<svg width="24px" height="24px" viewBox="0 0 24 24" version="1.1" xmlns="http://www.w3.org/2000/svg" xmlns:xlink="http://www.w3.org/1999/xlink">
    <title>Icons / 24 / close / Hover</title>
    <g id="Icons-/-24-/-close-/-Hover" stroke="none" stroke-width="1" fill="none" fill-rule="evenodd">
        <path d="M18.6210938,19.6171875 C18.8789062,19.6171875 19.0976562,19.5273438 19.2773438,19.3476562 C19.4570312,19.1679688 19.546875,18.9492188 19.546875,18.6914062 C19.546875,18.4335938 19.453125,18.21875 19.265625,18.046875 L13.3125,12.0703125 L19.265625,6.09375 C19.453125,5.921875 19.546875,5.70703125 19.546875,5.44921875 C19.546875,5.19140625 19.4570312,4.97265625 19.2773438,4.79296875 C19.0976562,4.61328125 18.8789062,4.5234375 18.6210938,4.5234375 C18.3632812,4.5234375 18.1484375,4.6171875 17.9765625,4.8046875 L12,10.7578125 L6.0234375,4.8046875 C5.8515625,4.6171875 5.63671875,4.5234375 5.37890625,4.5234375 C5.12109375,4.5234375 4.90234375,4.61328125 4.72265625,4.79296875 C4.54296875,4.97265625 4.453125,5.19140625 4.453125,5.44921875 C4.453125,5.70703125 4.546875,5.921875 4.734375,6.09375 L10.6875,12.0703125 L4.734375,18.046875 C4.546875,18.21875 4.453125,18.4335938 4.453125,18.6914062 C4.453125,18.9492188 4.54296875,19.1679688 4.72265625,19.3476562 C4.90234375,19.5273438 5.12109375,19.6171875 5.37890625,19.6171875 C5.63671875,19.6171875 5.8515625,19.5234375 6.0234375,19.3359375 L12,13.359375 L17.9765625,19.3359375 C18.1484375,19.5234375 18.3632812,19.6171875 18.6210938,19.6171875 Z" id="" fill="#474747" fill-rule="nonzero"></path>
    </g>
</svg>