<?xml version="1.0" encoding="UTF-8"?>
<svg width="16px" height="16px" viewBox="0 0 16 16" version="1.1" xmlns="http://www.w3.org/2000/svg" xmlns:xlink="http://www.w3.org/1999/xlink">
    <title>Icons / 16 / Menu / MiWeb / Inactive</title>
    <g id="Icons-/-16-/-Menu-/-MiWeb-/-Inactive" stroke="none" stroke-width="1" fill="none" fill-rule="evenodd">
        <path d="M8,15.125 C8.34375,15.125 8.71875,15.09375 9.125,15.03125 L9.5,14.96875 L9.890625,13.828125 C10.1927083,13.7239583 10.4895833,13.5989583 10.78125,13.453125 L11.859375,14 L12.171875,13.765625 C12.5052083,13.5260417 12.7916667,13.28125 13.03125,13.03125 C13.28125,12.7916667 13.5260417,12.5052083 13.765625,12.171875 L13.984375,11.859375 L13.453125,10.78125 C13.5989583,10.4895833 13.7239583,10.1875 13.828125,9.875 L14.96875,9.5 L15.03125,9.125 C15.09375,8.71875 15.125,8.34375 15.125,8 C15.125,7.65625 15.09375,7.28125 15.03125,6.875 L14.96875,6.5 L13.828125,6.109375 C13.7239583,5.796875 13.5989583,5.49479167 13.453125,5.203125 L13.984375,4.125 L13.765625,3.828125 C13.3177083,3.203125 12.7864583,2.66666667 12.171875,2.21875 L11.859375,2 L10.78125,2.546875 C10.4895833,2.40104167 10.1875,2.27604167 9.875,2.171875 L9.5,1.03125 L9.125,0.96875 C8.71875,0.90625 8.34375,0.875 8,0.875 C7.65625,0.875 7.28125,0.90625 6.875,0.96875 L6.5,1.03125 L6.109375,2.171875 C5.796875,2.27604167 5.5,2.40104167 5.21875,2.546875 L4.140625,2 L3.828125,2.234375 C3.21354167,2.68229167 2.68229167,3.21354167 2.234375,3.828125 L2.015625,4.140625 L2.546875,5.21875 C2.40104167,5.51041667 2.27604167,5.80729167 2.171875,6.109375 L1.03125,6.5 L0.96875,6.875 C0.90625,7.28125 0.875,7.65625 0.875,8 C0.875,8.34375 0.90625,8.71875 0.96875,9.125 L1.03125,9.5 L2.171875,9.890625 C2.27604167,10.203125 2.40104167,10.5 2.546875,10.78125 L2.015625,11.859375 L2.234375,12.171875 C2.46354167,12.484375 2.70833333,12.7708333 2.96875,13.03125 C3.20833333,13.2708333 3.49479167,13.515625 3.828125,13.765625 L4.140625,13.984375 L5.21875,13.453125 C5.51041667,13.5989583 5.80729167,13.7239583 6.109375,13.828125 L6.5,14.96875 L6.875,15.03125 C7.28125,15.09375 7.65625,15.125 8,15.125 Z M8,14 C7.80208333,14 7.58333333,13.984375 7.34375,13.953125 L7.171875,13.40625 L7,12.921875 L6.515625,12.765625 C6.22395833,12.671875 5.94791667,12.5572917 5.6875,12.421875 L5.234375,12.1875 L4.765625,12.421875 L4.25,12.671875 C4.07291667,12.5364583 3.91145833,12.390625 3.765625,12.234375 C3.609375,12.0885417 3.46354167,11.9270833 3.328125,11.75 L3.8125,10.78125 L3.578125,10.328125 C3.43229167,10.046875 3.31770833,9.77083333 3.234375,9.5 L3.078125,9 L2.046875,8.65625 C2.015625,8.4375 2,8.21875 2,8 C2,7.80208333 2.015625,7.58333333 2.046875,7.34375 L3.078125,7 L3.234375,6.515625 C3.31770833,6.234375 3.43229167,5.95833333 3.578125,5.6875 L3.8125,5.21875 L3.578125,4.765625 L3.328125,4.25 C3.59895833,3.90625 3.90625,3.59895833 4.25,3.328125 L5.21875,3.8125 L5.6875,3.578125 C5.94791667,3.43229167 6.22395833,3.31770833 6.515625,3.234375 L7,3.078125 L7.15625,2.59375 L7.34375,2.03125 C7.58333333,2.01041667 7.80208333,2 8,2 C8.20833333,2 8.42708333,2.01041667 8.65625,2.03125 L9,3.078125 L9.484375,3.21875 C9.77604167,3.3125 10.0572917,3.42708333 10.328125,3.5625 L10.78125,3.8125 L11.75,3.3125 C12.09375,3.59375 12.40625,3.90625 12.6875,4.25 L12.1875,5.21875 L12.421875,5.671875 C12.5677083,5.94270833 12.6875,6.21875 12.78125,6.5 L12.921875,7 L13.40625,7.15625 L13.96875,7.34375 C14,7.57291667 14.0104167,7.78645833 14,7.984375 L14,8 C14,8.19791667 13.9895833,8.41666667 13.96875,8.65625 L13.40625,8.828125 L12.921875,9 L12.765625,9.5 C12.6822917,9.78125 12.5729167,10.0520833 12.4375,10.3125 L12.1875,10.765625 L12.6875,11.75 C12.5416667,11.9270833 12.3958333,12.0885417 12.25,12.234375 L12.25,12.25 C12.1041667,12.3958333 11.9375,12.5364583 11.75,12.671875 L10.78125,12.1875 L10.328125,12.421875 C10.0572917,12.5572917 9.77604167,12.671875 9.484375,12.765625 L9,12.921875 L8.84375,13.40625 L8.65625,13.953125 C8.4375,13.984375 8.21875,14 8,14 Z M8,10.71875 C8.75,10.71875 9.390625,10.453125 9.921875,9.921875 C10.453125,9.390625 10.71875,8.75 10.71875,8 C10.71875,7.25 10.453125,6.609375 9.921875,6.078125 C9.390625,5.546875 8.75,5.28125 8,5.28125 C7.25,5.28125 6.609375,5.546875 6.078125,6.078125 C5.546875,6.609375 5.28125,7.25 5.28125,8 C5.28125,8.75 5.546875,9.390625 6.078125,9.921875 C6.609375,10.453125 7.25,10.71875 8,10.71875 Z M8,9.59375 C7.5625,9.59375 7.1875,9.4375 6.875,9.125 C6.5625,8.8125 6.40625,8.4375 6.40625,8 C6.40625,7.5625 6.5625,7.1875 6.875,6.875 C7.1875,6.5625 7.56510417,6.40625 8.0078125,6.40625 C8.45052083,6.40625 8.82552083,6.5625 9.1328125,6.875 C9.44010417,7.1875 9.59375,7.5625 9.59375,8 C9.59375,8.4375 9.4375,8.8125 9.125,9.125 C8.8125,9.4375 8.4375,9.59375 8,9.59375 Z" id="" fill="#222222" fill-rule="nonzero"></path>
    </g>
</svg>