<?xml version="1.0" encoding="UTF-8"?>
<svg width="16px" height="16px" viewBox="0 0 16 16" version="1.1" xmlns="http://www.w3.org/2000/svg" xmlns:xlink="http://www.w3.org/1999/xlink">
    <title>Icons / 16 / Header / Conexión / Hover</title>
    <g id="Icons-/-16-/-Header-/-Conexión-/-Hover" stroke="none" stroke-width="1" fill="none" fill-rule="evenodd">
        <path d="M10.859375,9.359375 C11.015625,9.359375 11.1510417,9.30729167 11.265625,9.203125 L14.0625,6.40625 C14.6770833,5.78125 14.984375,5.03125 14.984375,4.15625 C14.984375,3.28125 14.6744792,2.53385417 14.0546875,1.9140625 C13.4348958,1.29427083 12.6875,0.984375 11.8125,0.984375 C10.9375,0.984375 10.1875,1.296875 9.5625,1.921875 L6.765625,4.71875 C6.66145833,4.82291667 6.609375,4.953125 6.609375,5.109375 C6.609375,5.265625 6.6640625,5.3984375 6.7734375,5.5078125 C6.8828125,5.6171875 7.015625,5.671875 7.171875,5.671875 C7.328125,5.671875 7.45833333,5.61979167 7.5625,5.515625 L10.359375,2.71875 C10.765625,2.3125 11.25,2.109375 11.8125,2.109375 C12.375,2.109375 12.8567708,2.30989583 13.2578125,2.7109375 C13.6588542,3.11197917 13.859375,3.59635417 13.859375,4.1640625 C13.859375,4.73177083 13.65625,5.21354167 13.25,5.609375 L10.46875,8.40625 C10.3541667,8.51041667 10.296875,8.640625 10.296875,8.796875 C10.296875,8.953125 10.3515625,9.0859375 10.4609375,9.1953125 C10.5703125,9.3046875 10.703125,9.359375 10.859375,9.359375 Z M4.21875,14.921875 C5.09375,14.921875 5.84375,14.6145833 6.46875,14 L9.265625,11.203125 C9.36979167,11.0885417 9.421875,10.953125 9.421875,10.796875 C9.421875,10.640625 9.3671875,10.5078125 9.2578125,10.3984375 C9.1484375,10.2890625 9.015625,10.234375 8.859375,10.234375 C8.703125,10.234375 8.57291667,10.2916667 8.46875,10.40625 L5.671875,13.203125 C5.265625,13.5989583 4.78125,13.796875 4.21875,13.796875 C3.65625,13.796875 3.17708333,13.5989583 2.78125,13.203125 C2.375,12.796875 2.171875,12.3125 2.171875,11.75 C2.171875,11.1875 2.375,10.703125 2.78125,10.296875 L5.5625,7.5 C5.67708333,7.39583333 5.734375,7.265625 5.734375,7.109375 C5.734375,6.953125 5.6796875,6.8203125 5.5703125,6.7109375 C5.4609375,6.6015625 5.328125,6.546875 5.171875,6.546875 C5.015625,6.546875 4.88541667,6.60416667 4.78125,6.71875 L1.984375,9.5 C1.359375,10.125 1.046875,10.875 1.046875,11.75 C1.046875,12.625 1.35677083,13.3723958 1.9765625,13.9921875 C2.59635417,14.6119792 3.34375,14.921875 4.21875,14.921875 Z M7.203125,9.359375 C7.359375,9.359375 7.48958333,9.30208333 7.59375,9.1875 L9.1875,7.59375 C9.30208333,7.48958333 9.359375,7.359375 9.359375,7.203125 C9.359375,7.046875 9.3046875,6.9140625 9.1953125,6.8046875 C9.0859375,6.6953125 8.953125,6.640625 8.796875,6.640625 C8.640625,6.640625 8.51041667,6.69791667 8.40625,6.8125 L6.8125,8.40625 C6.69791667,8.51041667 6.640625,8.640625 6.640625,8.796875 C6.640625,8.953125 6.6953125,9.0859375 6.8046875,9.1953125 C6.9140625,9.3046875 7.046875,9.359375 7.203125,9.359375 Z" id="" fill="#474747" fill-rule="nonzero"></path>
    </g>
</svg>