<?xml version="1.0" encoding="UTF-8"?>
<svg width="16px" height="16px" viewBox="0 0 16 16" version="1.1" xmlns="http://www.w3.org/2000/svg" xmlns:xlink="http://www.w3.org/1999/xlink">
    <title>Icons / 16 / Menu / Dashboard / Inactive</title>
    <g id="Icons-/-16-/-Menu-/-Dashboard-/-Inactive" stroke="none" stroke-width="1" fill="none" fill-rule="evenodd">
        <path d="M2.1875,7.75 L8,2.15625 L13.8125,7.75 C13.9270833,7.85416667 14.0625,7.90104167 14.21875,7.890625 C14.375,7.88020833 14.5052083,7.81770833 14.609375,7.703125 C14.7135417,7.58854167 14.7604167,7.453125 14.75,7.296875 C14.7395833,7.140625 14.6770833,7.01041667 14.5625,6.90625 L8.75,1.3125 C8.54166667,1.125 8.29166667,1.03125 8,1.03125 C7.70833333,1.03125 7.45833333,1.125 7.25,1.3125 L1.4375,6.90625 C1.32291667,7.01041667 1.26041667,7.140625 1.25,7.296875 C1.23958333,7.453125 1.28645833,7.58854167 1.390625,7.703125 C1.49479167,7.81770833 1.625,7.88020833 1.78125,7.890625 C1.9375,7.90104167 2.07291667,7.85416667 2.1875,7.75 Z M12.453125,15 C12.765625,15 13.03125,14.890625 13.25,14.671875 C13.46875,14.453125 13.578125,14.1875 13.578125,13.875 L13.578125,9.546875 C13.578125,9.390625 13.5234375,9.2578125 13.4140625,9.1484375 C13.3046875,9.0390625 13.171875,8.984375 13.015625,8.984375 C12.859375,8.984375 12.7265625,9.0390625 12.6171875,9.1484375 C12.5078125,9.2578125 12.453125,9.390625 12.453125,9.546875 L12.453125,13.875 L10.21875,13.875 L10.21875,10.125 C10.21875,9.8125 10.109375,9.546875 9.890625,9.328125 C9.671875,9.109375 9.40625,9 9.09375,9 L6.90625,9 C6.59375,9 6.328125,9.109375 6.109375,9.328125 C5.890625,9.546875 5.78125,9.8125 5.78125,10.125 L5.78125,13.875 L3.546875,13.875 L3.546875,9.546875 C3.546875,9.390625 3.4921875,9.2578125 3.3828125,9.1484375 C3.2734375,9.0390625 3.140625,8.984375 2.984375,8.984375 C2.828125,8.984375 2.6953125,9.0390625 2.5859375,9.1484375 C2.4765625,9.2578125 2.421875,9.390625 2.421875,9.546875 L2.421875,13.875 C2.421875,14.1875 2.53125,14.453125 2.75,14.671875 C2.96875,14.890625 3.234375,15 3.546875,15 L12.453125,15 Z M9.09375,13.875 L6.90625,13.875 L6.90625,10.125 L9.09375,10.125 L9.09375,13.875 Z" id="" fill="#222222" fill-rule="nonzero"></path>
    </g>
</svg>