<?xml version="1.0" encoding="UTF-8"?>
<svg width="20px" height="20px" viewBox="0 0 20 20" version="1.1" xmlns="http://www.w3.org/2000/svg" xmlns:xlink="http://www.w3.org/1999/xlink">
    <title>Icons / 20 / Edit / Inactive</title>
    <g id="Icons-/-20-/-Edit-/-Inactive" stroke="none" stroke-width="1" fill="none" fill-rule="evenodd">
        <path d="M5.78125,15.5390625 L10.390625,13.5859375 C10.4557292,13.5598958 10.5208333,13.5208333 10.5859375,13.46875 L18.3398438,5.6953125 C18.6132812,5.421875 18.75,5.08984375 18.75,4.69921875 C18.75,4.30859375 18.6132812,3.9765625 18.3398438,3.703125 L16.796875,2.16015625 C16.5234375,1.88671875 16.1914062,1.75 15.8007812,1.75 C15.4101562,1.75 15.078125,1.88671875 14.8046875,2.16015625 L7.05078125,9.9140625 C6.98567708,9.97916667 6.94010417,10.0507812 6.9140625,10.1289062 L4.9609375,14.71875 C4.85677083,14.9791667 4.90234375,15.2070312 5.09765625,15.4023438 C5.29296875,15.5976562 5.52083333,15.6432292 5.78125,15.5390625 Z M16.1328125,5.91015625 L14.5898438,4.3671875 L15.8007812,3.15625 L17.34375,4.69921875 L16.1328125,5.91015625 Z M7.01171875,13.4882812 L8.14453125,10.8125 L13.59375,5.36328125 L15.1367188,6.90625 L9.6875,12.3554688 L7.01171875,13.4882812 Z M18.046875,19.25 C18.2421875,19.25 18.4082031,19.1816406 18.5449219,19.0449219 C18.6816406,18.9082031 18.75,18.7421875 18.75,18.546875 C18.75,18.3515625 18.6816406,18.1855469 18.5449219,18.0488281 C18.4082031,17.9121094 18.2421875,17.84375 18.046875,17.84375 L1.953125,17.84375 C1.7578125,17.84375 1.59179688,17.9121094 1.45507812,18.0488281 C1.31835938,18.1855469 1.25,18.3515625 1.25,18.546875 C1.25,18.7421875 1.31835938,18.9082031 1.45507812,19.0449219 C1.59179688,19.1816406 1.7578125,19.25 1.953125,19.25 L18.046875,19.25 Z" id="" fill="#222222" fill-rule="nonzero"></path>
    </g>
</svg>