<svg xmlns="http://www.w3.org/2000/svg" width="20" height="20" viewBox="0 0 20 20">
    <path fill="#222" d="M18.066 4.426c.196 0 .362-.069.498-.205.137-.137.206-.303.206-.498 0-.196-.069-.362-.206-.498-.136-.137-.302-.205-.498-.205H1.895c-.196 0-.362.068-.499.205-.136.136-.205.302-.205.498 0 .195.069.361.205.498.137.136.303.205.499.205h16.171zm-2.421 8.281c.195 0 .364-.065.507-.195l2.364-2.344c.143-.143.214-.313.214-.508s-.071-.364-.214-.508l-2.364-2.226c-.143-.13-.312-.192-.507-.186-.196.007-.359.078-.489.215s-.192.303-.185.498c.006.195.081.365.224.508l1.836 1.719-1.875 1.836c-.143.13-.215.293-.215.488s.072.358.215.488c.13.143.293.215.489.215zm-2.676-2.09c.195 0 .361-.068.498-.205.137-.137.205-.303.205-.498s-.068-.361-.205-.498c-.137-.137-.303-.205-.498-.205H1.934c-.196 0-.362.068-.498.205-.137.137-.206.303-.206.498s.069.361.206.498c.136.137.302.205.498.205h11.035zM18.008 18c.195 0 .361-.068.498-.205.137-.137.205-.303.205-.498s-.068-.361-.205-.498c-.137-.137-.303-.205-.498-.205H1.895c-.196 0-.362.068-.499.205-.136.137-.205.303-.205.498s.069.361.205.498c.137.137.303.205.499.205h16.113z"/>
</svg>
