<svg xmlns="http://www.w3.org/2000/svg" width="20" height="20" viewBox="0 0 20 20">
    <path fill="#222" d="M10 19.375c1.286 0 2.517-.247 3.692-.742 1.138-.483 2.147-1.163 3.025-2.041.878-.878 1.558-1.887 2.04-3.025.496-1.175.743-2.406.743-3.692s-.247-2.517-.742-3.692c-.483-1.138-1.163-2.147-2.041-3.025-.878-.878-1.887-1.558-3.025-2.04C12.517.621 11.286.374 10 .374c-1.521 0-2.95.34-4.286 1.02C4.415 2.052 3.32 2.96 2.43 4.124c-.112.148-.155.315-.13.501.025.186.111.334.26.445.148.112.315.155.5.13.186-.025.335-.111.446-.26.754-1.002 1.688-1.787 2.802-2.356C7.47 2.002 8.7 1.711 10 1.711c1.113 0 2.17.216 3.173.65.977.408 1.843.989 2.598 1.743.754.755 1.335 1.62 1.744 2.598.433 1.002.65 2.06.65 3.173s-.211 2.17-.632 3.173c-.42.977-1.008 1.843-1.762 2.598-.755.754-1.62 1.335-2.598 1.744-1.002.433-2.06.65-3.173.65-1.299 0-2.53-.292-3.692-.873-1.114-.569-2.048-1.355-2.802-2.356-.111-.149-.26-.235-.445-.26-.186-.025-.353.018-.501.13-.149.111-.235.26-.26.445-.025.186.018.353.13.501.89 1.163 1.985 2.072 3.284 2.727 1.336.68 2.765 1.021 4.286 1.021zm-.816-6.309c.185 0 .346-.068.482-.204l2.523-2.505c.124-.136.186-.296.186-.482s-.062-.346-.186-.482L9.666 6.888c-.136-.136-.297-.204-.482-.204-.186 0-.344.065-.474.194-.13.13-.194.288-.194.474 0 .185.068.346.204.482l1.373 1.373H1.168c-.186 0-.343.065-.473.195-.13.13-.195.287-.195.473s.065.343.195.473c.13.13.287.195.473.195h8.925L8.72 11.916c-.136.136-.204.297-.204.482 0 .186.065.344.194.474.13.13.288.194.474.194z"/>
</svg>
