<?xml version="1.0" encoding="UTF-8"?>
<svg width="20px" height="20px" viewBox="0 0 20 20" version="1.1" xmlns="http://www.w3.org/2000/svg" xmlns:xlink="http://www.w3.org/1999/xlink">
    <title>Icons / 20 / Menu / Masivo / Inactive</title>
    <g id="Icons-/-20-/-Menu-/-Masivo-/-Inactive" stroke="none" stroke-width="1" fill="none" fill-rule="evenodd">
        <path d="M8.203125,8.8203125 C8.13802083,8.5078125 8.10546875,8.1953125 8.10546875,7.8828125 C8.10546875,7.71354167 8.11197917,7.55078125 8.125,7.39453125 C7.63020833,7.32942708 7.21679688,7.10481771 6.88476562,6.72070312 C6.55273438,6.33658854 6.38671875,5.890625 6.38671875,5.3828125 C6.38671875,4.82291667 6.58528646,4.34440104 6.98242188,3.94726562 C7.37955729,3.55013021 7.85807292,3.3515625 8.41796875,3.3515625 C8.78255208,3.3515625 9.12109375,3.44270833 9.43359375,3.625 C9.74609375,3.80729167 9.98697917,4.04817708 10.15625,4.34765625 C10.5859375,4.11328125 11.0351562,3.95703125 11.5039062,3.87890625 C11.2174479,3.29296875 10.797526,2.82421875 10.2441406,2.47265625 C9.69075521,2.12109375 9.08203125,1.9453125 8.41796875,1.9453125 C7.46744792,1.9453125 6.65690104,2.28059896 5.98632812,2.95117188 C5.31575521,3.62174479 4.98046875,4.43229167 4.98046875,5.3828125 C4.98046875,6.29427083 5.29296875,7.08203125 5.91796875,7.74609375 C6.54296875,8.41015625 7.3046875,8.76822917 8.203125,8.8203125 Z M12.1679688,11.3203125 C13.1184896,11.3203125 13.9257812,10.9882812 14.5898438,10.3242188 C15.2669271,9.64713542 15.6054688,8.83333333 15.6054688,7.8828125 C15.6054688,6.93229167 15.2701823,6.12174479 14.5996094,5.45117188 C13.9290365,4.78059896 13.1184896,4.4453125 12.1679688,4.4453125 C11.2174479,4.4453125 10.406901,4.78059896 9.73632812,5.45117188 C9.06575521,6.12174479 8.73046875,6.93229167 8.73046875,7.8828125 C8.73046875,8.83333333 9.06575521,9.64388021 9.73632812,10.3144531 C10.406901,10.985026 11.2174479,11.3203125 12.1679688,11.3203125 Z M12.1679688,9.9140625 C11.6080729,9.9140625 11.1295573,9.71549479 10.7324219,9.31835938 C10.3352865,8.92122396 10.1367188,8.44270833 10.1367188,7.8828125 C10.1367188,7.32291667 10.3352865,6.84440104 10.7324219,6.44726562 C11.1295573,6.05013021 11.6080729,5.8515625 12.1679688,5.8515625 C12.7278646,5.8515625 13.2063802,6.05013021 13.6035156,6.44726562 C14.000651,6.84440104 14.1992188,7.32291667 14.1992188,7.8828125 C14.1992188,8.44270833 13.9973958,8.92447917 13.59375,9.328125 C13.203125,9.71875 12.7278646,9.9140625 12.1679688,9.9140625 Z M2.24609375,16.3984375 C2.44140625,16.3984375 2.60742188,16.3300781 2.74414062,16.1933594 C2.88085938,16.0566406 2.94921875,15.890625 2.94921875,15.6953125 C2.94921875,14.1848958 3.48307292,12.8958333 4.55078125,11.828125 C5.61848958,10.7604167 6.90755208,10.2265625 8.41796875,10.2265625 C8.56119792,10.2265625 8.7109375,10.2330729 8.8671875,10.2460938 C8.5546875,9.81640625 8.33984375,9.34114583 8.22265625,8.8203125 C6.99869792,8.859375 5.87565104,9.18815104 4.85351562,9.80664062 C3.83138021,10.4251302 3.02408854,11.2552083 2.43164062,12.296875 C1.83919271,13.3385417 1.54296875,14.4713542 1.54296875,15.6953125 C1.54296875,15.890625 1.61132812,16.0566406 1.74804688,16.1933594 C1.88476562,16.3300781 2.05078125,16.3984375 2.24609375,16.3984375 Z M5.99609375,18.8984375 C6.19140625,18.8984375 6.35742188,18.8300781 6.49414062,18.6933594 C6.63085938,18.5566406 6.69921875,18.390625 6.69921875,18.1953125 C6.69921875,16.6848958 7.23307292,15.3958333 8.30078125,14.328125 C9.36848958,13.2604167 10.6575521,12.7265625 12.1679688,12.7265625 C12.5325521,12.7265625 12.8971354,12.765625 13.2617188,12.84375 C13.8346354,12.4140625 14.4726562,12.1341146 15.1757812,12.0039062 C14.2252604,11.5481771 13.2226562,11.3203125 12.1679688,11.3203125 C10.2669271,11.3203125 8.64583333,11.9908854 7.3046875,13.3320312 C5.96354167,14.6731771 5.29296875,16.2942708 5.29296875,18.1953125 C5.29296875,18.390625 5.36132812,18.5566406 5.49804688,18.6933594 C5.63476562,18.8300781 5.80078125,18.8984375 5.99609375,18.8984375 Z M15.3320312,19.0546875 C15.5273438,19.0546875 15.6933594,18.9863281 15.8300781,18.8496094 C15.9667969,18.7128906 16.0351562,18.546875 16.0351562,18.3515625 L16.0351562,16.6328125 L17.7539062,16.6328125 C17.9492188,16.6328125 18.1152344,16.5644531 18.2519531,16.4277344 C18.3886719,16.2910156 18.4570312,16.125 18.4570312,15.9296875 C18.4570312,15.734375 18.3886719,15.5683594 18.2519531,15.4316406 C18.1152344,15.2949219 17.9492188,15.2265625 17.7539062,15.2265625 L16.0351562,15.2265625 L16.0351562,13.5078125 C16.0351562,13.3125 15.9667969,13.1464844 15.8300781,13.0097656 C15.6933594,12.8730469 15.5273438,12.8046875 15.3320312,12.8046875 C15.1367188,12.8046875 14.9707031,12.8730469 14.8339844,13.0097656 C14.6972656,13.1464844 14.6289062,13.3125 14.6289062,13.5078125 L14.6289062,15.2265625 L12.9101562,15.2265625 C12.7148438,15.2265625 12.5488281,15.2949219 12.4121094,15.4316406 C12.2753906,15.5683594 12.2070312,15.734375 12.2070312,15.9296875 C12.2070312,16.125 12.2753906,16.2910156 12.4121094,16.4277344 C12.5488281,16.5644531 12.7148438,16.6328125 12.9101562,16.6328125 L14.6289062,16.6328125 L14.6289062,18.3515625 C14.6289062,18.546875 14.6972656,18.7128906 14.8339844,18.8496094 C14.9707031,18.9863281 15.1367188,19.0546875 15.3320312,19.0546875 Z" id="î›" fill="#000000" fill-rule="nonzero"></path>
    </g>
</svg>