<?xml version="1.0" encoding="UTF-8"?>
<svg width="16px" height="16px" viewBox="0 0 16 16" version="1.1" xmlns="http://www.w3.org/2000/svg" xmlns:xlink="http://www.w3.org/1999/xlink">
    <title>Icons / 16 / Menu / Medicos / Inactive</title>
    <g id="Icons-/-16-/-Menu-/-Medicos-/-Inactive" stroke="none" stroke-width="1" fill="none" fill-rule="evenodd">
        <path d="M8,14.75 C8.48307292,14.75 8.89550781,14.5791016 9.23730469,14.2373047 C9.57910156,13.8955078 9.75,13.4830729 9.75,13 C9.75,12.6080729 9.63151042,12.2571615 9.39453125,11.9472656 C9.15755208,11.6373698 8.85677083,11.4277344 8.4921875,11.3183594 L8.4921875,9.828125 L11.9921875,6.328125 L11.9921875,4.18164062 C12.3567708,4.07226562 12.6575521,3.86263021 12.8945312,3.55273438 C13.1315104,3.24283854 13.25,2.89192708 13.25,2.5 C13.25,2.01692708 13.0791016,1.60449219 12.7373047,1.26269531 C12.3955078,0.920898438 11.9830729,0.75 11.5,0.75 C11.0169271,0.75 10.6044922,0.920898438 10.2626953,1.26269531 C9.92089844,1.60449219 9.75,2.01692708 9.75,2.5 C9.75,2.89192708 9.86848958,3.24283854 10.1054688,3.55273438 C10.3424479,3.86263021 10.6432292,4.07226562 11.0078125,4.18164062 L11.0078125,5.91796875 L8,8.93945312 L4.9921875,5.91796875 L4.9921875,4.18164062 C5.35677083,4.07226562 5.65755208,3.86263021 5.89453125,3.55273438 C6.13151042,3.24283854 6.25,2.89192708 6.25,2.5 C6.25,2.01692708 6.07910156,1.60449219 5.73730469,1.26269531 C5.39550781,0.920898438 4.98307292,0.75 4.5,0.75 C4.01692708,0.75 3.60449219,0.920898438 3.26269531,1.26269531 C2.92089844,1.60449219 2.75,2.01692708 2.75,2.5 C2.75,2.89192708 2.86621094,3.24283854 3.09863281,3.55273438 C3.33105469,3.86263021 3.63411458,4.07226562 4.0078125,4.18164062 L4.0078125,6.328125 L3.99414062,6.328125 L7.5078125,9.84179688 L7.5078125,11.3183594 C7.14322917,11.4277344 6.84244792,11.6373698 6.60546875,11.9472656 C6.36848958,12.2571615 6.25,12.6080729 6.25,13 C6.25,13.4830729 6.42089844,13.8955078 6.76269531,14.2373047 C7.10449219,14.5791016 7.51692708,14.75 8,14.75 Z M4.5,3.265625 C4.29036458,3.265625 4.10807292,3.19270833 3.953125,3.046875 C3.80729167,2.89192708 3.734375,2.70963542 3.734375,2.5 C3.734375,2.29036458 3.80957031,2.11035156 3.95996094,1.95996094 C4.11035156,1.80957031 4.29036458,1.734375 4.5,1.734375 C4.70963542,1.734375 4.88964844,1.80957031 5.04003906,1.95996094 C5.19042969,2.11035156 5.265625,2.29036458 5.265625,2.5 C5.265625,2.70963542 5.19042969,2.88964844 5.04003906,3.04003906 C4.88964844,3.19042969 4.70963542,3.265625 4.5,3.265625 Z M11.5,3.265625 C11.2903646,3.265625 11.1103516,3.19042969 10.9599609,3.04003906 C10.8095703,2.88964844 10.734375,2.70963542 10.734375,2.5 C10.734375,2.29036458 10.8095703,2.11035156 10.9599609,1.95996094 C11.1103516,1.80957031 11.2903646,1.734375 11.5,1.734375 C11.7096354,1.734375 11.8896484,1.80957031 12.0400391,1.95996094 C12.1904297,2.11035156 12.265625,2.29036458 12.265625,2.5 C12.265625,2.70963542 12.188151,2.89192708 12.0332031,3.046875 C11.8873698,3.19270833 11.7096354,3.265625 11.5,3.265625 Z M8,13.765625 C7.79036458,13.765625 7.61035156,13.6904297 7.45996094,13.5400391 C7.30957031,13.3896484 7.234375,13.2096354 7.234375,13 C7.234375,12.7903646 7.30957031,12.6103516 7.45996094,12.4599609 C7.61035156,12.3095703 7.79036458,12.234375 8,12.234375 C8.20963542,12.234375 8.38736979,12.311849 8.53320312,12.4667969 C8.68815104,12.6126302 8.765625,12.7903646 8.765625,13 C8.765625,13.2096354 8.69042969,13.3896484 8.54003906,13.5400391 C8.38964844,13.6904297 8.20963542,13.765625 8,13.765625 Z" id="" fill="#222222" fill-rule="nonzero"></path>
    </g>
</svg>