<?xml version="1.0" encoding="UTF-8"?>
<svg width="20px" height="20px" viewBox="0 0 20 20" version="1.1" xmlns="http://www.w3.org/2000/svg" xmlns:xlink="http://www.w3.org/1999/xlink">
    <title>Filtro / sm / Aplicado / Ver Buscador</title>
    <g id="Filtro-/-sm-/-Aplicado-/-Ver-Buscador" stroke="none" stroke-width="1" fill="none" fill-rule="evenodd">
        <g id="Group">
            <rect id="Rectangle" stroke="#222222" x="0.5" y="0.5" width="19" height="19" rx="9.5"></rect>
            <g transform="translate(2.000000, 2.000000)" fill="#474747" fill-opacity="0.6" fill-rule="nonzero" id="î˜">
                <g>
                    <path d="M7.98632812,11.25 C8.17773438,11.25 8.33268229,11.172526 8.45117188,11.0175781 L8.45117188,11.0175781 L13.1132812,5.234375 C13.2044271,5.11588542 13.25,4.98828125 13.25,4.8515625 C13.25,4.66015625 13.172526,4.50520833 13.0175781,4.38671875 C12.889974,4.28645833 12.7441406,4.24544271 12.5800781,4.26367188 C12.4160156,4.28190104 12.2838542,4.35481771 12.1835938,4.48242188 L12.1835938,4.48242188 L7.98632812,9.69140625 L3.81640625,4.50976562 C3.71614583,4.38216146 3.58398438,4.30924479 3.41992188,4.29101562 C3.25585938,4.27278646 3.11002604,4.31380208 2.98242188,4.4140625 C2.85481771,4.51432292 2.78190104,4.64648438 2.76367188,4.81054688 C2.74544271,4.97460938 2.78645833,5.12044271 2.88671875,5.24804688 L2.88671875,5.24804688 L7.52148438,11.0175781 C7.63997396,11.172526 7.79492188,11.25 7.98632812,11.25 Z"></path>
                </g>
            </g>
        </g>
    </g>
</svg>