<svg xmlns="http://www.w3.org/2000/svg" width="24" height="24" viewBox="0 0 24 24">
    <g fill="none" opacity=".4">
        <g fill="#000">
            <path d="M18.193 14.733c.207-.554.312-1.141.31-1.733 0-2.736-2.218-4.954-4.954-4.954-.585 0-1.164.105-1.712.31L13 9.555c.177-.028.355-.043.534-.043 1.935-.004 3.509 1.554 3.525 3.488 0 .179-.015.358-.043.534l1.177 1.2z" transform="translate(-1 -1)"/>
            <path d="M24.765 12.66c-2.434-4.499-6.702-7.222-11.426-7.222-1.286.003-2.563.21-3.784.614l1.163 1.17c.856-.221 1.737-.335 2.621-.34 4.067 0 7.764 2.269 9.967 6.09-.808 1.417-1.88 2.667-3.156 3.682l1.026 1.026c1.477-1.192 2.705-2.665 3.61-4.333l.188-.347-.209-.34zM3.517 4.174l3.221 3.222c-2.036 1.31-3.7 3.124-4.831 5.265L1.719 13l.188.347c2.434 4.5 6.702 7.222 11.425 7.222 1.844 0 3.663-.418 5.323-1.22l3.611 3.61 1.264-1.083L4.752 3.098 3.517 4.174zm7.042 7.042l4.803 4.803c-.543.336-1.168.516-1.806.52-.936 0-1.834-.374-2.495-1.038-.66-.664-1.028-1.564-1.022-2.501.008-.63.188-1.248.52-1.784zM9.512 10.17c-1.395 1.967-1.168 4.654.537 6.36 1.706 1.705 4.392 1.932 6.36.537l1.155 1.156c-1.337.571-2.777.866-4.232.866-4.066 0-7.764-2.267-9.966-6.088 1.057-1.872 2.58-3.44 4.42-4.55l1.726 1.719z" transform="translate(-1 -1)"/>
        </g>
        <path d="M1 1H25V25H1z" transform="translate(-1 -1)"/>
    </g>
</svg>
