<svg xmlns="http://www.w3.org/2000/svg" width="24" height="24" viewBox="0 0 24 24">
    <defs>
        <filter id="prefix__a">
            <feColorMatrix in="SourceGraphic" values="0 0 0 0 0.670588 0 0 0 0 0.670588 0 0 0 0 0.670588 0 0 0 1.000000 0"/>
        </filter>
    </defs>
    <g fill="none" fill-rule="evenodd" filter="url(#prefix__a)" opacity=".4" transform="translate(-339 -209)">
        <g fill-rule="nonzero">
            <g fill="#000">
                <path d="M24.281 12.66c-2.434-4.499-6.702-7.222-11.425-7.222-4.724 0-9 2.723-11.412 7.223L1.242 13l.188.347c2.434 4.5 6.702 7.222 11.426 7.222 4.723 0 8.998-2.687 11.425-7.222L24.47 13l-.188-.34zm-11.425 6.428c-4.067 0-7.8-2.267-9.967-6.088 2.167-3.82 5.9-6.088 9.967-6.088 4.066 0 7.756 2.275 9.959 6.088-2.203 3.82-5.9 6.088-9.96 6.088z" transform="translate(338 208)"/>
                <path d="M13.065 8.067c-2.734.02-4.935 2.252-4.918 4.986.017 2.734 2.246 4.937 4.98 4.923 2.735-.015 4.94-2.242 4.929-4.976-.006-1.317-.536-2.577-1.472-3.502-.936-.926-2.203-1.44-3.519-1.43zm0 8.465c-1.93-.02-3.483-1.596-3.474-3.527.01-1.93 1.577-3.492 3.508-3.493 1.93-.002 3.5 1.557 3.512 3.488.004.94-.369 1.843-1.035 2.507-.666.663-1.57 1.032-2.511 1.025z" transform="translate(338 208)"/>
            </g>
            <path d="M1 1H25V25H1z" transform="translate(338 208)"/>
        </g>
    </g>
</svg>
