<?xml version="1.0" encoding="UTF-8"?>
<svg width="16px" height="16px" viewBox="0 0 16 16" version="1.1" xmlns="http://www.w3.org/2000/svg" xmlns:xlink="http://www.w3.org/1999/xlink">
    <title>Icons / 16 / Menu / Reportes / Inactive</title>
    <g id="Icons-/-16-/-Menu-/-Reportes-/-Inactive" stroke="none" stroke-width="1" fill="none" fill-rule="evenodd">
        <path d="M13.453125,14.03125 C13.609375,14.03125 13.7421875,13.9765625 13.8515625,13.8671875 C13.9609375,13.7578125 14.015625,13.625 14.015625,13.46875 C14.015625,13.3125 13.9609375,13.1796875 13.8515625,13.0703125 C13.7421875,12.9609375 13.609375,12.90625 13.453125,12.90625 L13.453125,12.90625 L3.171,12.907 L3.171875,2.59375 C3.171875,2.46875 3.136875,2.35875 3.066875,2.26375 L3.0078125,2.1953125 C2.8984375,2.0859375 2.765625,2.03125 2.609375,2.03125 C2.453125,2.03125 2.3203125,2.0859375 2.2109375,2.1953125 C2.1015625,2.3046875 2.046875,2.4375 2.046875,2.59375 L2.046875,2.59375 L2.046875,13.46875 C2.046875,13.625 2.1015625,13.7578125 2.2109375,13.8671875 C2.3203125,13.9765625 2.453125,14.03125 2.609375,14.03125 L2.609375,14.03125 L13.453125,14.03125 Z M11.578125,11.96875 C11.734375,11.96875 11.8671875,11.9140625 11.9765625,11.8046875 C12.0859375,11.6953125 12.140625,11.5625 12.140625,11.40625 L12.140625,11.40625 L12.140625,3.578125 C12.140625,3.421875 12.0859375,3.2890625 11.9765625,3.1796875 C11.8671875,3.0703125 11.734375,3.015625 11.578125,3.015625 C11.421875,3.015625 11.2890625,3.0703125 11.1796875,3.1796875 C11.0703125,3.2890625 11.015625,3.421875 11.015625,3.578125 L11.015625,3.578125 L11.015625,11.40625 C11.015625,11.5625 11.0703125,11.6953125 11.1796875,11.8046875 C11.2890625,11.9140625 11.421875,11.96875 11.578125,11.96875 Z M5.59375,11.96875 C5.75,11.96875 5.8828125,11.9140625 5.9921875,11.8046875 C6.1015625,11.6953125 6.15625,11.5625 6.15625,11.40625 L6.15625,11.40625 L6.15625,5.609375 C6.15625,5.453125 6.1015625,5.3203125 5.9921875,5.2109375 C5.8828125,5.1015625 5.75,5.046875 5.59375,5.046875 C5.4375,5.046875 5.3046875,5.1015625 5.1953125,5.2109375 C5.0859375,5.3203125 5.03125,5.453125 5.03125,5.609375 L5.03125,5.609375 L5.03125,11.40625 C5.03125,11.5625 5.0859375,11.6953125 5.1953125,11.8046875 C5.3046875,11.9140625 5.4375,11.96875 5.59375,11.96875 Z M8.578125,11.96875 C8.734375,11.96875 8.8671875,11.9140625 8.9765625,11.8046875 C9.0859375,11.6953125 9.140625,11.5625 9.140625,11.40625 L9.140625,11.40625 L9.140625,7.578125 C9.140625,7.421875 9.08333333,7.2890625 8.96875,7.1796875 C8.85416667,7.0703125 8.72395833,7.015625 8.578125,7.015625 C8.421875,7.015625 8.2890625,7.0703125 8.1796875,7.1796875 C8.0703125,7.2890625 8.015625,7.421875 8.015625,7.578125 L8.015625,7.578125 L8.015625,11.40625 C8.015625,11.5625 8.0703125,11.6953125 8.1796875,11.8046875 C8.2890625,11.9140625 8.421875,11.96875 8.578125,11.96875 Z" id="" fill="#222222" fill-rule="nonzero"></path>
    </g>
</svg>