<?xml version="1.0" encoding="UTF-8"?>
<svg width="16px" height="16px" viewBox="0 0 16 16" version="1.1" xmlns="http://www.w3.org/2000/svg" xmlns:xlink="http://www.w3.org/1999/xlink">
    <title>Icons / 16 / search / Inactive</title>
    <g id="Icons-/-16-/-search-/-Inactive" stroke="none" stroke-width="1" fill="none" fill-rule="evenodd" opacity="0.5">
        <path d="M14.3818665,13.1427596 C14.4443663,13.2052595 14.4756162,13.2885928 14.4756162,13.392759 C14.4756162,13.4969253 14.4443663,13.5906751 14.3818665,13.6740084 L13.6631182,14.3615067 C13.5797849,14.44484 13.4860351,14.4865064 13.3818688,14.4865064 C13.2777026,14.4865064 13.1943693,14.44484 13.1318694,14.3615067 L11.8437241,13.0937212 C11.7812243,13.0103879 11.7499744,12.9270551 11.7499744,12.8437218 L11.7499744,12.4062228 C11.1666423,12.9062216 10.5103938,13.2968457 9.78122906,13.578095 C9.05206429,13.8593443 8.29164912,13.999969 7.4999845,13.999969 C6.31248733,13.999969 5.22394842,13.7083032 4.23436729,13.1249711 C3.24478616,12.541639 2.45833002,11.7551828 1.87499791,10.7656017 C1.29166581,9.77602058 1,8.68748167 1,7.4999845 C1,6.31248733 1.29166581,5.22394842 1.87499791,4.23436729 C2.45833002,3.24478616 3.24478616,2.45833002 4.23436729,1.87499791 C5.22394842,1.29166581 6.31248733,1 7.4999845,1 C8.68748167,1 9.77602058,1.29166581 10.7656017,1.87499791 C11.7551828,2.45833002 12.541639,3.24478616 13.1249711,4.23436729 C13.7083032,5.22394842 13.999969,6.31248733 13.999969,7.4999845 C13.999969,8.29164912 13.8593443,9.05206429 13.578095,9.78122906 C13.2968457,10.5103938 12.9062216,11.1666423 12.4062228,11.7499744 L12.8437218,11.7499744 C12.947888,11.7499744 13.0312213,11.7812243 13.0937212,11.8437241 L14.3818665,13.1427596 Z M7.4999845,12.4999726 C8.39581586,12.4999726 9.22914689,12.2760146 9.99997854,11.8280992 C10.7708102,11.3801837 11.3801837,10.7708102 11.8280992,9.99997854 C12.2760146,9.22914689 12.4999726,8.39581586 12.4999726,7.4999845 C12.4999726,6.60415315 12.2760146,5.77082212 11.8280992,4.99999642 C11.3801837,4.22915881 10.7708102,3.61978526 9.99997854,3.17186982 C9.22914689,2.72395438 8.39581586,2.49999642 7.4999845,2.49999642 C6.60415315,2.49999642 5.77082212,2.72395438 4.99999642,3.17186982 C4.22915881,3.61978526 3.61978526,4.22915881 3.17186982,4.99999642 C2.72395438,5.77082212 2.49999642,6.60415315 2.49999642,7.4999845 C2.49999642,8.39581586 2.72395438,9.22914689 3.17186982,9.99997854 C3.61978526,10.7708102 4.22915881,11.3801837 4.99999642,11.8280992 C5.77082212,12.2760146 6.60415315,12.4999726 7.4999845,12.4999726 Z" id="search" fill="#474747" fill-rule="nonzero"></path>
    </g>
</svg>