<?xml version="1.0" encoding="UTF-8"?>
<svg width="20px" height="21px" viewBox="0 0 20 21" version="1.1" xmlns="http://www.w3.org/2000/svg" xmlns:xlink="http://www.w3.org/1999/xlink">
    <title>Icons / 20 / View / Inactive</title>
    <g id="Icons-/-20-/-View-/-Inactive" stroke="none" stroke-width="1" fill="none" fill-rule="evenodd">
        <path d="M10,17.0039062 C11.6927083,17.0039062 13.1901042,16.6783854 14.4921875,16.0273438 C15.546875,15.4934896 16.4518229,14.7643229 17.2070312,13.8398438 C17.6627604,13.2669271 18.0664062,12.5572917 18.4179688,11.7109375 C18.6783854,11.0859375 18.8085938,10.6822917 18.8085938,10.5 C18.8085938,10.3177083 18.671875,9.9140625 18.3984375,9.2890625 C18.0598958,8.44270833 17.6627604,7.73307292 17.2070312,7.16015625 C16.4648438,6.23567708 15.5598958,5.50651042 14.4921875,4.97265625 C13.203125,4.32161458 11.7057292,3.99609375 10,3.99609375 C8.29427083,3.99609375 6.79036458,4.32161458 5.48828125,4.97265625 C4.44661458,5.50651042 3.54817708,6.23567708 2.79296875,7.16015625 C2.35026042,7.72005208 1.953125,8.4296875 1.6015625,9.2890625 C1.35546875,9.8515625 1.22011719,10.2347656 1.19550781,10.4386719 L1.19140625,10.5 C1.19140625,10.6822917 1.328125,11.0859375 1.6015625,11.7109375 C1.953125,12.5703125 2.35026042,13.2799479 2.79296875,13.8398438 C3.53515625,14.7643229 4.44010417,15.4934896 5.5078125,16.0273438 C6.80989583,16.6783854 8.30729167,17.0039062 10,17.0039062 Z M9.99023438,15.5976562 C8.51236979,15.5976562 7.22005208,15.3242188 6.11328125,14.7773438 C5.24088542,14.3346354 4.49869792,13.7291667 3.88671875,12.9609375 C3.36588542,12.3229167 2.94270833,11.5026042 2.6171875,10.5 C2.94270833,9.49739583 3.36588542,8.67708333 3.88671875,8.0390625 C4.49869792,7.27083333 5.24088542,6.66536458 6.11328125,6.22265625 C7.22005208,5.66276042 8.515625,5.3828125 10,5.3828125 C11.484375,5.3828125 12.7734375,5.66276042 13.8671875,6.22265625 C14.7395833,6.65234375 15.4817708,7.2578125 16.09375,8.0390625 C16.6145833,8.67708333 17.0377604,9.49739583 17.3632812,10.5 C17.0377604,11.5026042 16.6210938,12.3229167 16.1132812,12.9609375 L16.09375,12.9609375 C15.4947917,13.7291667 14.7526042,14.3346354 13.8671875,14.7773438 C12.7604167,15.3242188 11.468099,15.5976562 9.99023438,15.5976562 Z M10,13.859375 C10.9375,13.859375 11.735026,13.530599 12.3925781,12.8730469 C13.0501302,12.2154948 13.3789062,11.4179688 13.3789062,10.4804688 C13.3789062,9.54296875 13.046875,8.74869792 12.3828125,8.09765625 C11.7317708,7.43359375 10.9375,7.1015625 10,7.1015625 C9.0625,7.1015625 8.26497396,7.43033854 7.60742188,8.08789062 C6.94986979,8.74544271 6.62109375,9.54296875 6.62109375,10.4804688 C6.62109375,11.4179688 6.94986979,12.2154948 7.60742188,12.8730469 C8.26497396,13.530599 9.0625,13.859375 10,13.859375 Z M10,12.4726562 C9.453125,12.4726562 8.984375,12.2773438 8.59375,11.8867188 C8.203125,11.4960938 8.0078125,11.0273438 8.0078125,10.4804688 C8.0078125,9.93359375 8.203125,9.46484375 8.59375,9.07421875 C8.984375,8.68359375 9.453125,8.48828125 10,8.48828125 C10.546875,8.48828125 11.015625,8.68359375 11.40625,9.07421875 C11.796875,9.46484375 11.9921875,9.93359375 11.9921875,10.4804688 C11.9921875,11.0273438 11.796875,11.4960938 11.40625,11.8867188 C11.015625,12.2773438 10.546875,12.4726562 10,12.4726562 Z" id="" fill="#222222" fill-rule="nonzero"></path>
    </g>
</svg>