<svg xmlns="http://www.w3.org/2000/svg" width="16" height="16" viewBox="0 0 16 16">
    <g fill="none" fill-rule="evenodd">
        <g fill="#F7B500" fill-rule="nonzero">
            <g>
                <g>
                    <g>
                        <path d="M12.266 14.75c.273 0 .503-.096.69-.287.187-.192.28-.424.28-.697V5.562c0-.273-.09-.5-.273-.683l-3.8-3.842C9.097.982 9.03.932 8.956.887 8.93.868 8.911.859 8.902.859 8.893.85 8.88.841 8.862.832 8.733.777 8.601.75 8.464.75H3.748c-.273 0-.508.096-.704.287-.196.192-.294.424-.294.697v12.032c0 .273.098.505.294.697.196.191.43.287.704.287h8.518zm-.014-.984H3.734V1.734h4.252v3.282c0 .273.098.505.294.697.196.191.43.287.704.287h3.268v7.766zm-.533-8.75H8.97V2.254l2.748 2.762zM8.492 7.859c.137 0 .25-.045.342-.136.1-.1.15-.22.15-.356 0-.137-.047-.253-.143-.348-.096-.096-.212-.144-.349-.144h-3.5c-.137 0-.253.048-.348.144-.096.095-.144.211-.144.348 0 .137.048.253.144.349.095.096.211.143.348.143h3.5zm2.625 2.188c.137 0 .25-.046.342-.137.1-.1.15-.219.15-.355 0-.137-.047-.253-.143-.349-.096-.096-.212-.143-.349-.143H4.992c-.137 0-.253.047-.348.143-.096.096-.144.212-.144.349 0 .136.048.253.144.348.095.096.211.144.348.144h6.125zm-1.75 2.187c.137 0 .25-.045.342-.136.1-.1.15-.22.15-.356 0-.137-.047-.253-.143-.348-.096-.096-.212-.144-.349-.144H4.992c-.137 0-.253.048-.348.144-.096.095-.144.211-.144.348 0 .137.048.253.144.349.095.096.211.143.348.143h4.375z" transform="translate(-29 -265) translate(0 74) translate(0 180) translate(29 11)"/>
                    </g>
                </g>
            </g>
        </g>
    </g>
</svg>
