<?xml version="1.0" encoding="UTF-8"?>
<svg width="20px" height="21px" viewBox="0 0 20 21" version="1.1" xmlns="http://www.w3.org/2000/svg" xmlns:xlink="http://www.w3.org/1999/xlink">
    <title>Icons / 20 / File / Upload / Black</title>
    <g id="Icons-/-20-/-File-/-Upload-/-Black" stroke="none" stroke-width="1" fill="none" fill-rule="evenodd">
        <path d="M10,16.0078125 C10.1822917,16.0078125 10.3417969,15.9427083 10.4785156,15.8125 C10.6152344,15.6822917 10.6835938,15.5260417 10.6835938,15.34375 L10.6835938,15.34375 L10.6835938,4.0546875 L12.5585938,5.94921875 C12.7018229,6.07942708 12.8645833,6.14453125 13.046875,6.14453125 C13.2291667,6.14453125 13.3854167,6.07942708 13.515625,5.94921875 C13.6458333,5.81901042 13.7109375,5.65950521 13.7109375,5.47070312 C13.7109375,5.28190104 13.6458333,5.12239583 13.515625,4.9921875 L13.515625,4.9921875 L10.46875,1.9453125 C10.3385417,1.81510417 10.1822917,1.75 10,1.75 C9.81770833,1.75 9.66145833,1.81510417 9.53125,1.9453125 L9.53125,1.9453125 L6.484375,4.9921875 C6.35416667,5.12239583 6.2890625,5.28190104 6.2890625,5.47070312 C6.2890625,5.65950521 6.35416667,5.81901042 6.484375,5.94921875 C6.61458333,6.07942708 6.77083333,6.14453125 6.953125,6.14453125 C7.13541667,6.14453125 7.29166667,6.07942708 7.421875,5.94921875 L7.421875,5.94921875 L9.31640625,4.0546875 L9.31640625,15.34375 C9.31640625,15.5260417 9.38476562,15.6822917 9.52148438,15.8125 C9.65820312,15.9427083 9.81770833,16.0078125 10,16.0078125 Z M17.5195312,19.25 C17.8580729,19.25 18.1445312,19.1295573 18.3789062,18.8886719 C18.6132812,18.6477865 18.7304688,18.3645833 18.7304688,18.0390625 L18.7304688,18.0390625 L18.7304688,13.6835938 C18.7304688,13.5013021 18.6653646,13.3450521 18.5351562,13.2148438 C18.4049479,13.0716146 18.2454427,13 18.0566406,13 C17.8678385,13 17.7083333,13.0683594 17.578125,13.2050781 C17.4479167,13.3417969 17.3828125,13.5013021 17.3828125,13.6835938 L17.3828125,13.6835938 L17.3828125,17.4921875 C17.3828125,17.609375 17.34375,17.7070312 17.265625,17.7851562 C17.1875,17.8632812 17.0898438,17.9023438 16.9726562,17.9023438 L16.9726562,17.9023438 L2.98828125,17.9023438 C2.87109375,17.9023438 2.7734375,17.8632812 2.6953125,17.7851562 C2.6171875,17.7070312 2.578125,17.609375 2.578125,17.4921875 L2.578125,17.4921875 L2.578125,13.6835938 C2.578125,13.5013021 2.51302083,13.3417969 2.3828125,13.2050781 C2.25260417,13.0683594 2.09309896,13 1.90429688,13 C1.71549479,13 1.55598958,13.0683594 1.42578125,13.2050781 C1.29557292,13.3417969 1.23046875,13.5013021 1.23046875,13.6835938 L1.23046875,13.6835938 L1.23046875,18.0390625 C1.23046875,18.3776042 1.34765625,18.6640625 1.58203125,18.8984375 C1.81640625,19.1328125 2.10286458,19.25 2.44140625,19.25 L2.44140625,19.25 L17.5195312,19.25 Z" id="" fill="#222222" fill-rule="nonzero"></path>
    </g>
</svg>