<?xml version="1.0" standalone="no"?>
<!DOCTYPE svg PUBLIC "-//W3C//DTD SVG 20010904//EN"
 "http://www.w3.org/TR/2001/REC-SVG-20010904/DTD/svg10.dtd">
<svg version="1.0" xmlns="http://www.w3.org/2000/svg"
 width="201.000000pt" height="201.000000pt" viewBox="0 0 201.000000 201.000000"
 preserveAspectRatio="xMidYMid meet">
<metadata>
Created by potrace 1.14, written by Peter Selinger 2001-2017
</metadata>
<g transform="translate(0.000000,201.000000) scale(0.100000,-0.100000)"
fill="#000000" stroke="none">
<path d="M905 1983 c-282 -60 -516 -263 -618 -538 -25 -68 -31 -90 -43 -165
-3 -19 -7 -42 -10 -50 -3 -9 -2 -11 4 -5 4 6 16 37 26 70 58 192 214 373 401
465 118 58 218 82 350 82 488 3 857 -427 791 -920 -8 -60 -37 -153 -69 -222
-22 -47 -92 -158 -111 -175 -6 -6 -20 -21 -31 -35 -13 -16 -4 -12 26 13 120
97 231 275 275 442 28 107 26 323 -5 430 -60 209 -184 376 -369 498 -61 40
-184 91 -260 108 -78 18 -279 19 -357 2z"/>
<path d="M306 1727 c-196 -195 -295 -422 -302 -687 -5 -201 37 -369 132 -535
151 -260 412 -441 709 -491 22 -3 87 -7 144 -9 481 -11 903 338 994 822 8 40
11 73 7 73 -3 0 -14 -26 -24 -57 -74 -234 -249 -440 -465 -548 -88 -44 -193
-81 -258 -91 -27 -3 -57 -8 -68 -11 -25 -5 -193 -4 -220 1 -11 2 -40 7 -65 12
-25 4 -47 8 -50 9 -271 70 -500 259 -620 511 -123 260 -125 552 -5 812 30 64
99 173 137 214 49 53 61 68 54 68 -4 0 -50 -42 -100 -93z"/>
<path d="M583 1399 c-155 -60 -243 -241 -204 -415 l12 -54 113 0 112 0 35 132
35 132 32 2 c17 1 32 1 32 -1 0 -6 122 -450 125 -453 1 -2 12 34 25 80 12 46
29 89 38 96 9 6 42 12 73 12 l58 0 14 53 c9 28 25 89 37 135 22 83 23 83 54
80 31 -3 31 -4 66 -131 19 -70 40 -131 46 -135 7 -4 55 -6 107 -4 l95 3 7 47
c25 155 -1 253 -90 344 -60 62 -124 91 -207 96 -82 5 -145 -14 -212 -66 l-49
-38 -29 27 c-79 74 -221 100 -325 58z"/>
<path d="M694 976 c-10 -44 -26 -87 -36 -96 -14 -13 -40 -16 -124 -17 -58 -1
-108 -3 -110 -5 -2 -2 13 -33 34 -68 67 -116 251 -286 422 -390 l55 -33 50 28
c173 95 353 263 443 413 l32 52 -33 1 c-17 0 -64 0 -103 -1 -91 -2 -106 11
-129 108 -9 39 -20 72 -24 72 -4 0 -15 -34 -26 -75 -10 -42 -25 -80 -32 -87
-8 -6 -41 -12 -74 -14 -33 -1 -62 -4 -63 -6 -1 -2 -18 -61 -37 -133 -35 -128
-35 -129 -65 -130 -33 0 -31 -6 -103 265 -58 214 -55 209 -77 116z"/>
</g>
</svg>
